<svg width="96" height="96" viewBox="0 0 96 96" fill="none" xmlns="http://www.w3.org/2000/svg">
<path d="M21.984 10.1999C22.3832 10.5478 22.6561 11.0179 22.7603 11.5371C22.8645 12.0563 22.7941 12.5953 22.56 13.0703C22.5173 13.2103 22.4963 13.356 22.4976 13.5023C22.4976 13.8047 22.5744 14.3807 23.2992 15.1007C23.6496 15.4511 23.9184 15.7007 24.2112 15.9743C24.4512 16.1951 24.7056 16.4255 25.0272 16.7423C25.6512 17.3375 26.3088 18.0383 26.8992 18.9167C28.1232 20.7551 28.8 23.0543 28.8 26.3999C28.8 33.4559 24.1104 38.3999 19.2 38.3999C14.2896 38.3999 9.59998 33.4559 9.59998 26.3999C9.59998 24.8351 10.0176 22.9679 10.5936 21.2447C11.1696 19.5215 11.976 17.7311 12.9072 16.2911C14.016 14.4191 15.576 12.8495 16.7856 11.7935C17.4512 11.2132 18.1431 10.6638 18.8592 10.1471L19.0704 10.0031C19.5105 9.70971 20.0353 9.56995 20.563 9.60554C21.0908 9.64113 21.5872 9.85008 21.984 10.1999ZM19.2 43.1999C22.1351 43.1957 24.9805 42.188 27.264 40.3439C27.4912 41.0191 27.6832 41.6991 27.84 42.3839C28.8 46.5599 28.8 51.5807 28.8 55.0799V55.1999C28.8 68.5775 26.9808 76.1663 24.9792 80.5055C23.9712 82.6895 22.9008 84.0815 21.9744 84.9551C21.5972 85.3158 21.182 85.6345 20.736 85.9055C20.5315 86.0284 20.3181 86.1359 20.0976 86.2271C20.0976 86.2271 19.5552 86.3999 19.2 86.3999C18.8448 86.3999 18.3024 86.2271 18.3024 86.2271C18.0819 86.1359 17.8685 86.0284 17.664 85.9055C17.218 85.6345 16.8027 85.3158 16.4256 84.9551C15.4992 84.0767 14.4288 82.6895 13.4208 80.5055C11.4192 76.1663 9.59998 68.5775 9.59998 55.1999V55.0799C9.59998 51.5759 9.59998 46.5599 10.56 42.3839C10.7168 41.6991 10.9088 41.0191 11.136 40.3439C13.4194 42.188 16.2649 43.1957 19.2 43.1999ZM43.2 62.3999C39.768 62.3999 36.4992 61.6799 33.552 60.3839C33.616 58.6751 33.648 56.8991 33.648 55.0559C36.5554 56.7231 39.8485 57.6001 43.2 57.5999V47.9999C43.2 45.4538 44.2114 43.012 46.0118 41.2117C47.8121 39.4113 50.2539 38.3999 52.8 38.3999H62.4C62.4004 34.9906 61.4931 31.6426 59.7712 28.7001C58.0492 25.7575 55.5748 23.3265 52.6023 21.657C49.6297 19.9874 46.2662 19.1395 42.8574 19.2003C39.4486 19.2611 36.1175 20.2285 33.2064 22.0031C32.9071 20.3925 32.3598 18.838 31.584 17.3951C35.2381 15.374 39.3562 14.3413 43.5316 14.399C47.7069 14.4567 51.795 15.6028 55.3918 17.7241C58.9887 19.8453 61.9698 22.8684 64.0407 26.4944C66.1116 30.1205 67.2005 34.2241 67.2 38.3999H76.8C79.3461 38.3999 81.7878 39.4113 83.5882 41.2117C85.3885 43.012 86.4 45.4538 86.4 47.9999V71.9999C86.4 74.546 85.3885 76.9878 83.5882 78.7881C81.7878 80.5885 79.3461 81.5999 76.8 81.5999H52.8C50.2539 81.5999 47.8121 80.5885 46.0118 78.7881C44.2114 76.9878 43.2 74.546 43.2 71.9999V62.3999ZM66.72 43.1999C65.7735 47.8096 63.4954 52.0403 60.1679 55.3678C56.8403 58.6953 52.6097 60.9735 48 61.9199V71.9999C48 73.2729 48.5057 74.4938 49.4059 75.394C50.306 76.2942 51.5269 76.7999 52.8 76.7999H76.8C78.073 76.7999 79.2939 76.2942 80.1941 75.394C81.0943 74.4938 81.6 73.2729 81.6 71.9999V47.9999C81.6 46.7269 81.0943 45.506 80.1941 44.6058C79.2939 43.7056 78.073 43.1999 76.8 43.1999H66.72ZM61.7952 43.1999H52.8C51.5269 43.1999 50.306 43.7056 49.4059 44.6058C48.5057 45.506 48 46.7269 48 47.9999V56.9951C51.32 56.1334 54.3495 54.4002 56.7749 51.9748C59.2003 49.5494 60.9335 46.5199 61.7952 43.1999Z" fill="#189EA3"/>
</svg>
