<svg width="97" height="90" viewBox="0 0 97 90" fill="none" xmlns="http://www.w3.org/2000/svg">
<path d="M45.0013 44.9999C45.0013 41.4508 43.7458 38.4207 41.2346 35.9095C38.7234 33.3983 35.6933 32.1428 32.1442 32.1428C28.5951 32.1428 25.565 33.3983 23.0538 35.9095C20.5426 38.4207 19.2871 41.4508 19.2871 44.9999C19.2871 48.549 20.5426 51.5791 23.0538 54.0903C25.565 56.6015 28.5951 57.857 32.1442 57.857C35.6933 57.857 38.7234 56.6015 41.2346 54.0903C43.7458 51.5791 45.0013 48.549 45.0013 44.9999ZM83.5728 70.7142C83.5728 68.9731 82.9366 67.4664 81.6643 66.1941C80.392 64.9218 78.8853 64.2856 77.1442 64.2856C75.4031 64.2856 73.8964 64.9218 72.6241 66.1941C71.3518 67.4664 70.7156 68.9731 70.7156 70.7142C70.7156 72.4887 71.3434 74.0038 72.599 75.2594C73.8546 76.515 75.3696 77.1428 77.1442 77.1428C78.9188 77.1428 80.4338 76.515 81.6894 75.2594C82.945 74.0038 83.5728 72.4887 83.5728 70.7142ZM83.5728 19.2856C83.5728 17.5445 82.9366 16.0378 81.6643 14.7655C80.392 13.4932 78.8853 12.857 77.1442 12.857C75.4031 12.857 73.8964 13.4932 72.6241 14.7655C71.3518 16.0378 70.7156 17.5445 70.7156 19.2856C70.7156 21.0602 71.3434 22.5752 72.599 23.8308C73.8546 25.0864 75.3696 25.7142 77.1442 25.7142C78.9188 25.7142 80.4338 25.0864 81.6894 23.8308C82.945 22.5752 83.5728 21.0602 83.5728 19.2856ZM64.2871 40.4296V49.7209C64.2871 50.0557 64.1699 50.3821 63.9355 50.7002C63.7011 51.0183 63.4333 51.1941 63.1319 51.2276L55.3473 52.4329C54.979 53.6048 54.4433 54.8771 53.7402 56.2499C54.8786 57.857 56.3853 59.7823 58.2603 62.0256C58.4946 62.3939 58.6118 62.7287 58.6118 63.03C58.6118 63.4318 58.4946 63.7499 58.2603 63.9843C57.4902 64.9887 56.109 66.4871 54.1169 68.4792C52.1247 70.4714 50.8105 71.4675 50.1743 71.4675C49.806 71.4675 49.4545 71.3503 49.1196 71.116L43.344 66.5959C42.1051 67.232 40.8161 67.751 39.4768 68.1528C39.1085 71.7689 38.7234 74.3637 38.3217 75.9374C38.0873 76.741 37.585 77.1428 36.815 77.1428H27.4734C27.1051 77.1428 26.7703 77.0172 26.469 76.7661C26.1676 76.515 26.0002 76.222 25.9667 75.8872L24.8116 68.203C23.6732 67.8682 22.4176 67.3492 21.0449 66.6461L15.1185 71.116C14.8842 71.3503 14.5493 71.4675 14.1141 71.4675C13.7458 71.4675 13.3942 71.3336 13.0594 71.0657C8.23795 66.6126 5.82724 63.934 5.82724 63.03C5.82724 62.7287 5.94442 62.4106 6.1788 62.0758C6.51362 61.607 7.2 60.7198 8.23795 59.414C9.2759 58.1082 10.0627 57.0869 10.5984 56.3503C9.82835 54.8771 9.24241 53.5044 8.84063 52.232L1.2067 51.0267C0.871879 50.9932 0.58728 50.8342 0.352905 50.5496C0.11853 50.265 0.00134277 49.9385 0.00134277 49.5702V40.2789C0.00134277 39.9441 0.11853 39.6176 0.352905 39.2996C0.58728 38.9815 0.855137 38.8057 1.15648 38.7722L8.94108 37.5669C9.30938 36.395 9.84509 35.1227 10.5482 33.7499C9.40983 32.1428 7.90313 30.2175 6.02813 27.9742C5.79375 27.6059 5.67657 27.2711 5.67657 26.9698C5.67657 26.568 5.79375 26.2332 6.02813 25.9653C6.76474 24.9608 8.1375 23.4709 10.1464 21.4954C12.1554 19.52 13.4779 18.5323 14.1141 18.5323C14.4824 18.5323 14.8339 18.6494 15.1688 18.8838L20.9444 23.4039C22.0828 22.8012 23.3719 22.2655 24.8116 21.7968C25.1799 18.1807 25.565 15.6026 25.9667 14.0624C26.2011 13.2588 26.7034 12.857 27.4734 12.857H36.815C37.1833 12.857 37.5181 12.9826 37.8194 13.2337C38.1208 13.4848 38.2882 13.7778 38.3217 14.1126L39.4768 21.7968C40.6152 22.1316 41.8708 22.6506 43.2435 23.3537L49.1699 18.8838C49.4377 18.6494 49.7726 18.5323 50.1743 18.5323C50.5426 18.5323 50.8942 18.6662 51.229 18.934C56.0505 23.3872 58.4612 26.0657 58.4612 26.9698C58.4612 27.2376 58.344 27.5557 58.1096 27.924C57.7078 28.4597 57.0047 29.3637 56.0002 30.6361C54.9958 31.9084 54.2424 32.9128 53.7402 33.6494C54.5103 35.2566 55.0795 36.6294 55.4478 37.7678L63.0817 38.9229C63.4165 38.9898 63.7011 39.1656 63.9355 39.4502C64.1699 39.7348 64.2871 40.0613 64.2871 40.4296ZM96.4299 67.1986V74.2298C96.4299 74.7655 93.9355 75.2845 88.9467 75.7867C88.5449 76.6907 88.0426 77.5613 87.44 78.3983C89.1476 82.1818 90.0013 84.4921 90.0013 85.3291C90.0013 85.4631 89.9344 85.5802 89.8005 85.6807C85.7156 88.0579 83.6397 89.2465 83.5728 89.2465C83.3049 89.2465 82.5348 88.4597 81.2625 86.8861C79.9902 85.3124 79.1196 84.174 78.6509 83.4709C77.9813 83.5378 77.479 83.5713 77.1442 83.5713C76.8094 83.5713 76.3071 83.5378 75.6375 83.4709C75.1688 84.174 74.2982 85.3124 73.0259 86.8861C71.7536 88.4597 70.9835 89.2465 70.7156 89.2465C70.6487 89.2465 68.5728 88.0579 64.488 85.6807C64.354 85.5802 64.2871 85.4631 64.2871 85.3291C64.2871 84.4921 65.1409 82.1818 66.8484 78.3983C66.2458 77.5613 65.7435 76.6907 65.3417 75.7867C60.3529 75.2845 57.8585 74.7655 57.8585 74.2298V67.1986C57.8585 66.6628 60.3529 66.1439 65.3417 65.6416C65.777 64.6707 66.2792 63.8001 66.8484 63.03C65.1409 59.2465 64.2871 56.9363 64.2871 56.0992C64.2871 55.9653 64.354 55.8481 64.488 55.7477C64.6219 55.6807 65.2078 55.3459 66.2458 54.7432C67.2837 54.1405 68.2714 53.5713 69.2089 53.0356C70.1464 52.4999 70.6487 52.232 70.7156 52.232C70.9835 52.232 71.7536 53.0105 73.0259 54.5674C74.2982 56.1243 75.1688 57.2544 75.6375 57.9575C76.3071 57.8905 76.8094 57.857 77.1442 57.857C77.479 57.857 77.9813 57.8905 78.6509 57.9575C80.3585 55.5803 81.8987 53.7053 83.2714 52.3325L83.5728 52.232C83.7067 52.232 85.7826 53.4039 89.8005 55.7477C89.9344 55.8481 90.0013 55.9653 90.0013 56.0992C90.0013 56.9363 89.1476 59.2465 87.44 63.03C88.0092 63.8001 88.5114 64.6707 88.9467 65.6416C93.9355 66.1439 96.4299 66.6628 96.4299 67.1986ZM96.4299 15.77V22.8012C96.4299 23.3369 93.9355 23.8559 88.9467 24.3582C88.5449 25.2622 88.0426 26.1327 87.44 26.9698C89.1476 30.7532 90.0013 33.0635 90.0013 33.9006C90.0013 34.0345 89.9344 34.1517 89.8005 34.2521C85.7156 36.6294 83.6397 37.818 83.5728 37.818C83.3049 37.818 82.5348 37.0311 81.2625 35.4575C79.9902 33.8838 79.1196 32.7454 78.6509 32.0423C77.9813 32.1093 77.479 32.1428 77.1442 32.1428C76.8094 32.1428 76.3071 32.1093 75.6375 32.0423C75.1688 32.7454 74.2982 33.8838 73.0259 35.4575C71.7536 37.0311 70.9835 37.818 70.7156 37.818C70.6487 37.818 68.5728 36.6294 64.488 34.2521C64.354 34.1517 64.2871 34.0345 64.2871 33.9006C64.2871 33.0635 65.1409 30.7532 66.8484 26.9698C66.2458 26.1327 65.7435 25.2622 65.3417 24.3582C60.3529 23.8559 57.8585 23.3369 57.8585 22.8012V15.77C57.8585 15.2343 60.3529 14.7153 65.3417 14.2131C65.777 13.2421 66.2792 12.3715 66.8484 11.6015C65.1409 7.81798 64.2871 5.50771 64.2871 4.67065C64.2871 4.53673 64.354 4.41954 64.488 4.31909C64.6219 4.25213 65.2078 3.91731 66.2458 3.31463C67.2837 2.71195 68.2714 2.14275 69.2089 1.60704C70.1464 1.07132 70.6487 0.803467 70.7156 0.803467C70.9835 0.803467 71.7536 1.58193 73.0259 3.13885C74.2982 4.69577 75.1688 5.82579 75.6375 6.52891C76.3071 6.46195 76.8094 6.42847 77.1442 6.42847C77.479 6.42847 77.9813 6.46195 78.6509 6.52891C80.3585 4.15168 81.8987 2.27668 83.2714 0.903913L83.5728 0.803467C83.7067 0.803467 85.7826 1.97534 89.8005 4.31909C89.9344 4.41954 90.0013 4.53673 90.0013 4.67065C90.0013 5.50771 89.1476 7.81798 87.44 11.6015C88.0092 12.3715 88.5114 13.2421 88.9467 14.2131C93.9355 14.7153 96.4299 15.2343 96.4299 15.77Z" fill="#189EA3"/>
</svg>
