<svg width="96" height="96" viewBox="0 0 96 96" fill="none" xmlns="http://www.w3.org/2000/svg">
<path d="M56 17C57.6569 17 59 18.3431 59 20H66C71.6178 20 74.4265 20.0004 76.4443 21.3486C77.3178 21.9323 78.0677 22.6822 78.6514 23.5557C79.9996 25.5735 80 28.3822 80 34V72C80 79.5425 80.0004 83.3141 77.6572 85.6572C75.3141 88.0004 71.5425 88 64 88H32C24.4575 88 20.6859 88.0004 18.3428 85.6572C15.9996 83.3141 16 79.5425 16 72V34C16 28.3822 16.0004 25.5735 17.3486 23.5557C17.9323 22.6822 18.6822 21.9323 19.5557 21.3486C21.5735 20.0004 24.3822 20 30 20H37C37 18.3431 38.3431 17 40 17H56ZM36 62C34.8954 62 34 62.8954 34 64C34 65.1046 34.8954 66 36 66H52L52.2041 65.9893C53.2128 65.887 54 65.0357 54 64C54 62.9643 53.2128 62.113 52.2041 62.0107L52 62H36ZM36 46C34.8954 46 34 46.8954 34 48C34 49.1046 34.8954 50 36 50H60L60.2041 49.9893C61.2128 49.887 62 49.0357 62 48C62 46.9644 61.2128 46.113 60.2041 46.0107L60 46H36ZM44 19C43.4477 19 43 19.4477 43 20C43 20.5523 43.4477 21 44 21H52C52.5523 21 53 20.5523 53 20C53 19.4477 52.5523 19 52 19H44Z" fill="#189EA3"/>
</svg>
