<svg width="96" height="96" viewBox="0 0 96 96" fill="none" xmlns="http://www.w3.org/2000/svg">
<path d="M49.0832 30.9153C53.1032 37.3922 58.6078 42.8581 65.1633 46.8352L32.8566 79.1438C32.4316 79.5689 32.2183 79.7814 31.9572 79.9211C31.6963 80.0607 31.4016 80.1198 30.8127 80.2375L12.7355 83.8528C12.4029 83.9193 12.2364 83.9523 12.1418 83.8577C12.0475 83.7631 12.0803 83.5969 12.1467 83.2649L15.7629 65.1877C15.8808 64.5983 15.9395 64.3033 16.0793 64.0422C16.219 63.7812 16.4316 63.5688 16.8566 63.1438L49.0832 30.9153ZM68.0002 12.8284C68.8285 12.8285 69.4951 13.4952 70.8283 14.8284L81.1711 25.1711C82.5044 26.5045 83.1711 27.1718 83.1711 28.0002C83.1709 28.8285 82.5042 29.4952 81.1711 30.8284L66.6213 45.3772C60.0152 41.4641 54.495 35.9862 50.5363 29.4622L65.1711 14.8284C66.5044 13.495 67.1718 12.8284 68.0002 12.8284Z" fill="#189EA3"/>
</svg>
