<svg width="96" height="96" viewBox="0 0 96 96" fill="none" xmlns="http://www.w3.org/2000/svg">
<path d="M52.64 88.76L46 73.4C52.4 71.08 58.28 68 63.72 64.32L52.6 88.76M22.6 50L7.23999 43.4L31.68 32.28C27.9272 37.7855 24.8769 43.7383 22.6 50ZM86.64 9.4C86.64 9.4 95.12 29.24 72.44 52C63.64 60.68 54.12 66 45.52 69.36C42.56 70.48 39.24 69.76 37.04 67.52L28.52 59C26.28 56.76 25.56 53.48 26.64 50.48C30 42 35.32 32.36 44 23.56C66.76 0.864002 86.64 9.4 86.64 9.4ZM25 88H19.36L35.72 71.6C36.92 72.44 38.24 73.04 39.6 73.4L25 88ZM7.99999 88V82.36L27.08 63.24L32.8 68.92L13.64 88H7.99999ZM7.99999 76.64V71L22.6 56.4C22.96 57.8 23.56 59.12 24.4 60.28L7.99999 76.64ZM64 24C61.8783 24 59.8434 24.8429 58.3431 26.3431C56.8428 27.8434 56 29.8783 56 32C56 34.1217 56.8428 36.1566 58.3431 37.6569C59.8434 39.1571 61.8783 40 64 40C68.44 40 72 36.44 72 32C72 29.8783 71.1571 27.8434 69.6568 26.3431C68.1566 24.8429 66.1217 24 64 24Z" fill="#189EA3"/>
</svg>
