<svg aria-hidden="true" style="position: absolute; width: 0; height: 0; overflow: hidden;" version="1.1" xmlns="http://www.w3.org/2000/svg" xmlns:xlink="http://www.w3.org/1999/xlink">
<defs>
<symbol id="icon-arrow" viewBox="0 0 121 32">
<path d="M120.889 16l-26.667-15.396v30.792l26.667-15.396zM0 16v2.667h96.889v-5.333h-96.889v2.667z"></path>
</symbol>
<symbol id="icon-brush" viewBox="0 0 32 32">
<path fill="#189ea3" style="fill: var(--color1, #189ea3)" d="M7.328 3.4c0.133 0.116 0.224 0.273 0.259 0.446s0.011 0.353-0.067 0.511c-0.014 0.047-0.021 0.095-0.021 0.144 0 0.101 0.026 0.293 0.267 0.533 0.117 0.117 0.206 0.2 0.304 0.291 0.080 0.074 0.165 0.15 0.272 0.256 0.208 0.198 0.427 0.432 0.624 0.725 0.408 0.613 0.634 1.379 0.634 2.494 0 2.352-1.563 4-3.2 4s-3.2-1.648-3.2-4c0-0.522 0.139-1.144 0.331-1.718s0.461-1.171 0.771-1.651c0.37-0.624 0.89-1.147 1.293-1.499 0.222-0.193 0.452-0.377 0.691-0.549l0.070-0.048c0.147-0.098 0.322-0.144 0.498-0.133s0.341 0.082 0.474 0.198zM6.4 14.4c0.978-0.001 1.927-0.337 2.688-0.952 0.076 0.225 0.14 0.452 0.192 0.68 0.32 1.392 0.32 3.066 0.32 4.232v0.040c0 4.459-0.606 6.989-1.274 8.435-0.336 0.728-0.693 1.192-1.002 1.483-0.126 0.12-0.264 0.226-0.413 0.317-0.068 0.041-0.139 0.077-0.213 0.107 0 0-0.181 0.058-0.299 0.058s-0.299-0.058-0.299-0.058c-0.074-0.030-0.145-0.066-0.213-0.107-0.149-0.090-0.287-0.197-0.413-0.317-0.309-0.293-0.666-0.755-1.002-1.483-0.667-1.446-1.274-3.976-1.274-8.435v-0.040c0-1.168 0-2.84 0.32-4.232 0.052-0.228 0.116-0.455 0.192-0.68 0.761 0.615 1.71 0.951 2.688 0.952zM14.4 20.8c-1.144 0-2.234-0.24-3.216-0.672 0.021-0.57 0.032-1.162 0.032-1.776 0.969 0.556 2.067 0.848 3.184 0.848v-3.2c0-0.849 0.337-1.663 0.937-2.263s1.414-0.937 2.263-0.937h3.2c0-1.136-0.302-2.252-0.876-3.233s-1.399-1.791-2.39-2.348c-0.991-0.557-2.112-0.839-3.248-0.819s-2.247 0.343-3.217 0.934c-0.1-0.537-0.282-1.055-0.541-1.536 1.218-0.674 2.591-1.018 3.983-0.999s2.754 0.401 3.953 1.108c1.199 0.707 2.193 1.715 2.883 2.923s1.053 2.577 1.053 3.969h3.2c0.849 0 1.663 0.337 2.263 0.937s0.937 1.414 0.937 2.263v8c0 0.849-0.337 1.663-0.937 2.263s-1.414 0.937-2.263 0.937h-8c-0.849 0-1.663-0.337-2.263-0.937s-0.937-1.414-0.937-2.263v-3.2zM22.24 14.4c-0.316 1.537-1.075 2.947-2.184 4.056s-2.519 1.869-4.056 2.184v3.36c0 0.424 0.169 0.831 0.469 1.131s0.707 0.469 1.131 0.469h8c0.424 0 0.831-0.169 1.131-0.469s0.469-0.707 0.469-1.131v-8c0-0.424-0.169-0.831-0.469-1.131s-0.707-0.469-1.131-0.469h-3.36zM20.598 14.4h-2.998c-0.424 0-0.831 0.169-1.131 0.469s-0.469 0.707-0.469 1.131v2.998c1.107-0.287 2.116-0.865 2.925-1.673s1.386-1.818 1.673-2.925z"></path>
</symbol>
<symbol id="icon-dev" viewBox="0 0 32 32">
<path fill="#189ea3" style="fill: var(--color1, #189ea3)" d="M8 4v4h-4v-4h4zM2 2v8h8v-8h-8zM18 7v4h-4v-4h4zM12 5v8h8v-8h-8zM8 16v4h-4v-4h4zM2 14v8h8v-8h-8z"></path>
<path fill="#189ea3" style="fill: var(--color1, #189ea3)" d="M22 10v6h-6v6h-6v8h20v-20h-8zM18 18h4v4h-4v-4zM16 28h-4v-4h4v4zM22 28h-4v-4h4v4zM28 28h-4v-4h4v4zM28 22h-4v-4h4v4zM24 16v-4h4v4h-4z"></path>
</symbol>
<symbol id="icon-gears" viewBox="0 0 35 32">
<path fill="#189ea3" style="fill: var(--color1, #189ea3)" d="M16 16c0-1.262-0.446-2.339-1.339-3.232s-1.97-1.339-3.232-1.339c-1.262 0-2.339 0.446-3.232 1.339s-1.339 1.97-1.339 3.232c0 1.262 0.446 2.339 1.339 3.232s1.97 1.339 3.232 1.339c1.262 0 2.339-0.446 3.232-1.339s1.339-1.97 1.339-3.232zM29.715 25.143c0-0.619-0.226-1.155-0.679-1.607s-0.988-0.679-1.607-0.679c-0.619 0-1.155 0.226-1.607 0.679s-0.679 0.988-0.679 1.607c0 0.631 0.223 1.17 0.67 1.616s0.985 0.67 1.616 0.67c0.631 0 1.17-0.223 1.616-0.67s0.67-0.985 0.67-1.616zM29.715 6.857c0-0.619-0.226-1.155-0.679-1.607s-0.988-0.679-1.607-0.679c-0.619 0-1.155 0.226-1.607 0.679s-0.679 0.988-0.679 1.607c0 0.631 0.223 1.17 0.67 1.616s0.985 0.67 1.616 0.67c0.631 0 1.17-0.223 1.616-0.67s0.67-0.985 0.67-1.616zM22.858 14.375v3.304c0 0.119-0.042 0.235-0.125 0.348s-0.179 0.176-0.286 0.188l-2.768 0.429c-0.131 0.417-0.321 0.869-0.571 1.357 0.405 0.571 0.94 1.256 1.607 2.054 0.083 0.131 0.125 0.25 0.125 0.357 0 0.143-0.042 0.256-0.125 0.339-0.274 0.357-0.765 0.89-1.473 1.598s-1.176 1.063-1.402 1.063c-0.131 0-0.256-0.042-0.375-0.125l-2.054-1.607c-0.441 0.226-0.899 0.411-1.375 0.554-0.131 1.286-0.268 2.208-0.411 2.768-0.083 0.286-0.262 0.429-0.536 0.429h-3.321c-0.131 0-0.25-0.045-0.357-0.134s-0.167-0.193-0.179-0.313l-0.411-2.732c-0.405-0.119-0.851-0.304-1.339-0.554l-2.107 1.589c-0.083 0.083-0.202 0.125-0.357 0.125-0.131 0-0.256-0.048-0.375-0.143-1.714-1.583-2.571-2.536-2.571-2.857 0-0.107 0.042-0.22 0.125-0.339 0.119-0.167 0.363-0.482 0.732-0.946s0.649-0.827 0.839-1.089c-0.274-0.524-0.482-1.012-0.625-1.464l-2.714-0.429c-0.119-0.012-0.22-0.068-0.304-0.17s-0.125-0.217-0.125-0.348v-3.304c0-0.119 0.042-0.235 0.125-0.348s0.179-0.176 0.286-0.188l2.768-0.429c0.131-0.417 0.321-0.869 0.571-1.357-0.405-0.571-0.94-1.256-1.607-2.054-0.083-0.131-0.125-0.25-0.125-0.357 0-0.143 0.042-0.262 0.125-0.357 0.262-0.357 0.75-0.887 1.464-1.589s1.185-1.054 1.411-1.054c0.131 0 0.256 0.042 0.375 0.125l2.054 1.607c0.405-0.214 0.863-0.405 1.375-0.571 0.131-1.286 0.268-2.202 0.411-2.75 0.083-0.286 0.262-0.429 0.536-0.429h3.321c0.131 0 0.25 0.045 0.357 0.134s0.167 0.193 0.179 0.313l0.411 2.732c0.405 0.119 0.851 0.304 1.339 0.554l2.107-1.589c0.095-0.083 0.214-0.125 0.357-0.125 0.131 0 0.256 0.048 0.375 0.143 1.714 1.583 2.571 2.536 2.571 2.857 0 0.095-0.042 0.208-0.125 0.339-0.143 0.19-0.393 0.512-0.75 0.964s-0.625 0.809-0.804 1.071c0.274 0.571 0.476 1.060 0.607 1.464l2.714 0.411c0.119 0.024 0.22 0.086 0.304 0.188s0.125 0.217 0.125 0.348zM34.286 23.893v2.5c0 0.19-0.887 0.375-2.661 0.554-0.143 0.321-0.321 0.631-0.536 0.929 0.607 1.345 0.911 2.167 0.911 2.464 0 0.048-0.024 0.089-0.071 0.125-1.452 0.845-2.191 1.268-2.214 1.268-0.095 0-0.369-0.28-0.821-0.839s-0.762-0.964-0.929-1.214c-0.238 0.024-0.417 0.036-0.536 0.036s-0.298-0.012-0.536-0.036c-0.167 0.25-0.476 0.655-0.929 1.214s-0.726 0.839-0.821 0.839c-0.024 0-0.762-0.423-2.214-1.268-0.048-0.036-0.071-0.077-0.071-0.125 0-0.298 0.304-1.119 0.911-2.464-0.214-0.298-0.393-0.607-0.536-0.929-1.774-0.179-2.661-0.363-2.661-0.554v-2.5c0-0.191 0.887-0.375 2.661-0.554 0.155-0.345 0.333-0.655 0.536-0.929-0.607-1.345-0.911-2.167-0.911-2.464 0-0.048 0.024-0.089 0.071-0.125 0.048-0.024 0.256-0.143 0.625-0.357s0.72-0.417 1.054-0.607 0.512-0.286 0.536-0.286c0.095 0 0.369 0.277 0.821 0.83s0.762 0.955 0.929 1.205c0.238-0.024 0.417-0.036 0.536-0.036s0.298 0.012 0.536 0.036c0.607-0.845 1.155-1.512 1.643-2l0.107-0.036c0.048 0 0.786 0.417 2.214 1.25 0.048 0.036 0.071 0.077 0.071 0.125 0 0.298-0.304 1.119-0.911 2.464 0.202 0.274 0.381 0.583 0.536 0.929 1.774 0.179 2.661 0.363 2.661 0.554zM34.286 5.607v2.5c0 0.19-0.887 0.375-2.661 0.554-0.143 0.321-0.321 0.631-0.536 0.929 0.607 1.345 0.911 2.167 0.911 2.464 0 0.048-0.024 0.089-0.071 0.125-1.452 0.845-2.191 1.268-2.214 1.268-0.095 0-0.369-0.28-0.821-0.839s-0.762-0.964-0.929-1.214c-0.238 0.024-0.417 0.036-0.536 0.036s-0.298-0.012-0.536-0.036c-0.167 0.25-0.476 0.655-0.929 1.214s-0.726 0.839-0.821 0.839c-0.024 0-0.762-0.423-2.214-1.268-0.048-0.036-0.071-0.077-0.071-0.125 0-0.298 0.304-1.119 0.911-2.464-0.214-0.298-0.393-0.607-0.536-0.929-1.774-0.179-2.661-0.363-2.661-0.554v-2.5c0-0.19 0.887-0.375 2.661-0.554 0.155-0.345 0.333-0.655 0.536-0.929-0.607-1.345-0.911-2.167-0.911-2.464 0-0.048 0.024-0.089 0.071-0.125 0.048-0.024 0.256-0.143 0.625-0.357s0.72-0.417 1.054-0.607 0.512-0.286 0.536-0.286c0.095 0 0.369 0.277 0.821 0.83s0.762 0.955 0.929 1.205c0.238-0.024 0.417-0.036 0.536-0.036s0.298 0.012 0.536 0.036c0.607-0.845 1.155-1.512 1.643-2l0.107-0.036c0.048 0 0.786 0.417 2.214 1.25 0.048 0.036 0.071 0.077 0.071 0.125 0 0.298-0.304 1.119-0.911 2.464 0.202 0.274 0.381 0.583 0.536 0.929 1.774 0.179 2.661 0.363 2.661 0.554z"></path>
</symbol>
<symbol id="icon-note" viewBox="0 0 32 32">
<path fill="#189ea3" style="fill: var(--color1, #189ea3)" d="M18.667 5.667c0.552 0 1 0.448 1 1h2.333c1.873 0 2.809 0 3.481 0.45 0.291 0.195 0.541 0.445 0.736 0.736 0.449 0.673 0.45 1.609 0.45 3.481v12.667c0 2.514 0 3.771-0.781 4.552s-2.038 0.781-4.552 0.781h-10.667c-2.514 0-3.771 0-4.552-0.781s-0.781-2.038-0.781-4.552v-12.667c0-1.873 0-2.809 0.45-3.481 0.195-0.291 0.445-0.541 0.736-0.736 0.673-0.449 1.609-0.45 3.481-0.45h2.333c0-0.552 0.448-1 1-1h5.333zM12 20.667c-0.368 0-0.667 0.298-0.667 0.667s0.298 0.667 0.667 0.667l5.401-0.004c0.336-0.034 0.599-0.318 0.599-0.663s-0.262-0.629-0.599-0.663l-0.068-0.004h-5.333zM12 15.333c-0.368 0-0.667 0.298-0.667 0.667s0.298 0.667 0.667 0.667l8.068-0.004c0.336-0.034 0.599-0.318 0.599-0.663s-0.262-0.629-0.599-0.663l-0.068-0.004h-8zM14.667 6.333c-0.184 0-0.333 0.149-0.333 0.333s0.149 0.333 0.333 0.333h2.667c0.184 0 0.333-0.149 0.333-0.333s-0.149-0.333-0.333-0.333h-2.667z"></path>
</symbol>
<symbol id="icon-pen" viewBox="0 0 32 32">
<path fill="#189ea3" style="fill: var(--color1, #189ea3)" d="M16.361 10.305c1.34 2.159 3.175 3.981 5.36 5.307l-10.769 10.77c-0.142 0.142-0.213 0.213-0.3 0.259s-0.185 0.066-0.382 0.105l-6.026 1.205c-0.111 0.022-0.166 0.033-0.198 0.002s-0.021-0.087 0.002-0.198l1.205-6.026c0.039-0.196 0.059-0.295 0.105-0.382s0.117-0.158 0.259-0.299l10.742-10.743zM22.667 4.276c0.276 0 0.498 0.222 0.943 0.667l3.448 3.448c0.444 0.444 0.667 0.667 0.667 0.943s-0.222 0.498-0.667 0.943l-4.85 4.85c-2.202-1.304-4.042-3.13-5.362-5.305l4.878-4.878c0.444-0.444 0.667-0.667 0.943-0.667z"></path>
</symbol>
<symbol id="icon-rocket" viewBox="0 0 32 32">
<path fill="#189ea3" style="fill: var(--color1, #189ea3)" d="M17.547 29.587l-2.213-5.12c2.133-0.773 4.093-1.8 5.907-3.027l-3.707 8.147zM7.533 16.667l-5.12-2.2 8.147-3.707c-1.251 1.835-2.268 3.819-3.027 5.907zM28.88 3.133c0 0 2.827 6.613-4.733 14.2-2.933 2.893-6.107 4.667-8.973 5.787-0.987 0.373-2.093 0.133-2.827-0.613l-2.84-2.84c-0.747-0.747-0.987-1.84-0.627-2.84 1.12-2.827 2.893-6.040 5.787-8.973 7.587-7.565 14.213-4.72 14.213-4.72zM8.333 29.333h-1.88l5.453-5.467c0.4 0.28 0.84 0.48 1.293 0.6l-4.867 4.867zM2.667 29.333v-1.88l6.36-6.373 1.907 1.893-6.387 6.36h-1.88zM2.667 25.547v-1.88l4.867-4.867c0.12 0.467 0.32 0.907 0.6 1.293l-5.467 5.453zM21.333 8c-0.707 0-1.386 0.281-1.886 0.781s-0.781 1.178-0.781 1.886 0.281 1.386 0.781 1.886c0.5 0.5 1.178 0.781 1.886 0.781 1.48 0 2.667-1.187 2.667-2.667 0-0.707-0.281-1.386-0.781-1.886s-1.178-0.781-1.886-0.781z"></path>
</symbol>
</defs>
</svg>
