<?xml version="1.0" standalone="no"?>
<!DOCTYPE svg PUBLIC "-//W3C//DTD SVG 20010904//EN"
 "http://www.w3.org/TR/2001/REC-SVG-20010904/DTD/svg10.dtd">
<svg version="1.0" xmlns="http://www.w3.org/2000/svg"
 width="1024.000000pt" height="1024.000000pt" viewBox="0 0 1024.000000 1024.000000"
 preserveAspectRatio="xMidYMid meet">

<g transform="translate(0.000000,1024.000000) scale(0.100000,-0.100000)"
fill="#000000" stroke="none">
<path d="M0 5120 l0 -5120 5120 0 5120 0 0 5120 0 5120 -5120 0 -5120 0 0
-5120z m1264 1838 c-4 -6 -3 -8 3 -5 15 10 96 -58 100 -83 2 -15 -1 -19 -9
-13 -22 13 -42 13 -29 0 16 -16 14 -30 -4 -23 -8 3 -15 1 -15 -4 0 -6 7 -10
16 -10 10 0 12 -5 7 -12 -4 -7 5 -5 20 5 25 16 28 16 33 2 4 -9 13 -14 21 -11
9 4 13 1 10 -6 -5 -16 -37 -18 -57 -4 -13 10 -13 9 -1 -7 8 -9 16 -15 19 -12
3 3 12 -4 19 -15 13 -19 40 -19 28 0 -3 5 -1 11 4 14 10 7 3 46 -8 46 -4 0 -8
7 -8 15 0 19 11 19 26 1 17 -20 169 -130 209 -150 18 -9 31 -20 28 -24 -2 -4
6 -8 17 -9 12 0 40 -7 63 -14 38 -11 49 -10 165 29 184 60 277 76 459 76 178
0 244 -12 407 -74 59 -22 117 -40 129 -40 46 0 186 84 364 219 144 108 188
137 197 128 7 -7 20 -41 29 -77 21 -82 14 -217 -15 -311 -24 -77 -96 -193
-113 -183 -6 4 -8 3 -5 -3 4 -6 -2 -18 -13 -28 -15 -14 -17 -21 -9 -32 17 -20
4 -27 -14 -8 -9 8 -18 11 -22 6 -5 -9 32 -27 48 -23 14 4 86 -119 116 -197 41
-109 55 -181 55 -301 1 -160 -43 -282 -151 -423 -33 -43 -43 -62 -38 -78 5
-16 4 -19 -5 -14 -9 5 -11 4 -6 -4 4 -6 12 -9 17 -6 12 8 43 -64 58 -133 32
-152 -9 -362 -111 -566 -75 -150 -168 -275 -323 -435 -160 -165 -387 -343
-416 -325 -7 4 -9 3 -5 -4 4 -6 -22 -27 -64 -52 -130 -76 -307 -148 -448 -181
-83 -20 -247 -29 -270 -15 -18 11 -15 63 4 70 9 3 31 6 49 6 117 0 358 73 534
162 62 32 118 54 125 50 17 -10 56 -9 49 2 -4 5 1 7 10 3 35 -14 51 -17 30 -6
-26 14 -32 45 -7 35 63 -24 88 -13 51 22 -17 16 -26 18 -37 11 -13 -9 -13 -10
1 -6 9 3 24 -4 34 -15 17 -20 17 -21 -11 -14 -16 4 -31 11 -34 16 -3 5 -13 3
-22 -4 -10 -7 -15 -16 -12 -19 3 -3 -4 -11 -16 -17 -14 -8 -26 -8 -32 -2 -6 6
4 18 29 33 21 12 61 40 90 61 29 21 56 38 60 38 4 0 1 -6 -8 -13 -13 -10 -14
-14 -3 -25 8 -7 15 -8 19 -2 3 6 11 10 16 10 6 0 8 -4 5 -9 -3 -5 0 -14 8 -20
11 -9 14 -8 12 6 -2 24 -17 34 -41 26 -17 -5 -18 -4 -8 9 7 8 11 17 8 20 -7 7
208 193 220 190 5 -2 7 -1 3 3 -4 4 33 52 83 108 139 157 235 310 288 464 76
217 67 400 -26 503 -28 31 -41 54 -37 64 3 9 10 16 16 16 5 0 6 -6 2 -12 -4
-8 -3 -10 2 -5 5 5 8 11 6 13 -2 3 19 31 46 62 72 83 98 128 127 216 63 189
34 413 -75 571 -26 38 -29 48 -20 67 10 21 10 21 -3 5 -13 -16 -18 -13 -61 33
-25 27 -46 53 -46 59 0 5 29 32 65 60 82 64 120 116 145 199 26 83 27 190 3
207 -12 9 -14 17 -8 27 6 8 2 5 -7 -5 -18 -19 -15 -43 3 -32 50 31 -92 -83
-178 -144 -23 -15 -38 -19 -49 -13 -9 5 -15 13 -14 18 1 5 -3 9 -9 11 -8 1 -7
0 0 -4 8 -4 7 -8 -2 -14 -12 -7 -12 -9 0 -9 11 0 9 -4 -5 -14 -21 -16 -46 -4
-38 19 3 7 1 16 -5 20 -7 3 -8 0 -5 -9 3 -9 1 -16 -5 -16 -6 0 -11 5 -11 11 0
5 -5 7 -11 3 -8 -4 -2 -12 15 -21 28 -15 36 -29 10 -19 -9 4 -13 2 -8 -5 4 -7
1 -10 -7 -7 -8 3 -13 10 -12 15 1 5 -7 9 -17 9 -10 0 -16 -6 -13 -13 3 -7 12
-13 20 -13 8 0 12 -4 8 -9 -3 -5 0 -13 6 -17 8 -5 9 -3 4 6 -6 10 -4 12 9 7
10 -4 15 -3 11 3 -5 9 2 12 21 9 3 0 16 7 30 16 14 9 28 14 31 12 6 -7 -52
-44 -142 -92 -86 -45 -139 -47 -234 -6 -123 52 -222 72 -386 78 -196 7 -297
-7 -460 -62 -72 -25 -148 -45 -170 -45 -48 1 -150 40 -150 58 0 8 -9 20 -19
28 -11 8 -14 14 -8 14 7 0 12 5 12 11 0 5 -5 7 -10 4 -6 -3 -18 1 -27 11 -17
16 -16 17 9 12 25 -5 26 -3 19 31 -1 2 -7 -2 -15 -8 -9 -7 -17 -8 -20 -2 -3 5
-2 11 4 13 6 2 0 9 -12 17 -20 12 -21 12 -12 0 6 -8 10 -24 9 -37 -1 -13 2
-25 7 -28 4 -3 5 -11 2 -17 -4 -7 -4 -9 0 -6 7 7 58 -33 51 -40 -7 -6 -106 59
-227 150 -112 83 -118 86 -124 64 -16 -63 41 -259 87 -301 27 -24 24 -41 -3
-18 l-23 19 18 -21 c12 -15 14 -23 6 -26 -23 -8 -19 -59 8 -84 20 -19 23 -27
14 -38 -6 -8 -13 -22 -16 -32 -2 -11 -6 -28 -10 -39 -5 -16 -4 -15 7 3 8 12
18 19 23 15 5 -4 3 0 -4 10 -17 21 2 23 20 1 11 -14 9 -19 -11 -36 -14 -11
-18 -16 -10 -12 8 4 23 14 32 22 16 14 16 16 -8 34 -14 11 -23 23 -20 26 3 2
13 -1 23 -9 9 -8 14 -9 10 -3 -4 7 5 23 20 38 29 29 45 34 37 11 -7 -18 11
-20 22 -3 4 7 3 8 -5 4 -6 -4 -10 -3 -9 2 2 6 -17 24 -40 42 -24 17 -42 34
-39 36 7 7 107 -66 107 -77 0 -6 -19 -31 -43 -57 -144 -157 -197 -283 -197
-464 0 -179 49 -299 178 -430 l85 -88 -79 -82 c-84 -88 -129 -164 -161 -273
-15 -54 -17 -126 -21 -677 -3 -558 -2 -618 13 -618 53 0 276 135 376 228 37
34 63 51 71 46 7 -4 10 -4 6 1 -11 12 43 77 59 71 8 -3 11 -1 8 4 -6 9 123
165 136 165 4 0 11 4 16 9 5 5 3 6 -4 2 -21 -12 -16 -1 34 76 122 188 198 470
180 665 l-6 62 35 7 c19 3 38 3 42 -1 4 -4 7 -82 7 -173 0 -123 -5 -185 -17
-237 -45 -183 -112 -324 -231 -485 -85 -115 -292 -324 -314 -316 -8 3 -12 2
-9 -3 9 -13 -97 -89 -200 -143 -97 -51 -212 -95 -265 -100 -30 -3 -33 0 -42
32 -13 50 -2 1184 12 1285 25 173 75 299 152 388 l42 49 13 -24 c15 -25 19
-51 5 -29 -5 7 -11 9 -13 5 -3 -5 2 -17 11 -26 15 -15 19 -13 63 28 26 24 42
46 37 49 -5 4 -9 1 -9 -6 0 -9 -3 -9 -14 0 -9 8 -16 8 -20 2 -4 -5 -2 -12 4
-16 6 -4 -1 -18 -17 -35 -31 -33 -40 -33 -23 0 7 12 8 20 2 16 -11 -7 -37 48
-28 62 3 5 -2 16 -12 23 -16 13 -16 12 -3 -6 7 -11 -7 2 -33 28 -53 56 -118
182 -143 277 -23 88 -23 272 0 360 9 36 36 103 59 150 35 70 47 85 65 84 13
-1 20 3 17 7 -3 5 -10 7 -15 4 -19 -12 -8 12 22 48 l31 38 -50 53 c-133 140
-179 378 -107 549 14 33 18 36 36 27 11 -6 16 -16 13 -22z m133 -90 c10 -18
12 -58 1 -52 -4 3 -8 13 -8 23 0 9 -5 22 -12 29 -9 9 -9 12 -1 12 7 0 15 -6
20 -12z m-24 -21 c4 3 7 3 7 0 0 -3 -8 -11 -18 -16 -14 -7 -18 -6 -18 9 0 13
4 16 12 10 6 -6 14 -7 17 -3z m48 -70 c-6 -8 -7 -18 -3 -22 4 -5 1 -5 -6 -1
-10 6 -10 11 -1 22 6 8 14 14 16 14 3 0 0 -6 -6 -13z m-21 -314 c-1 -10 -50
-46 -50 -37 0 11 32 44 42 44 4 0 8 -3 8 -7z m13 -41 c22 -24 12 -100 -10 -78
-4 4 -1 12 7 17 13 9 13 10 0 6 -8 -2 -25 5 -37 16 -22 19 -22 22 -6 39 20 22
26 22 46 0z m47 -36 c0 -11 -19 -15 -25 -6 -3 5 1 10 9 10 9 0 16 -2 16 -4z
m537 -254 c66 -34 110 -78 140 -140 25 -50 28 -68 28 -147 -1 -106 -24 -171
-83 -228 -62 -60 -122 -82 -227 -82 -73 0 -100 5 -143 24 -65 29 -134 104
-156 168 -18 54 -21 160 -5 218 25 93 99 171 191 201 65 21 202 13 255 -14z
m995 11 c72 -27 108 -61 142 -132 28 -60 31 -75 31 -161 0 -76 -5 -105 -22
-142 -48 -105 -115 -157 -229 -177 -236 -43 -415 171 -349 417 16 56 27 75 70
118 66 66 133 93 237 93 49 1 93 -5 120 -16z m-694 -676 c31 -40 60 -74 65
-75 4 -2 4 -9 1 -15 -4 -7 7 1 24 17 l31 29 21 -24 21 -24 -17 28 c-9 15 -14
37 -11 50 5 20 4 20 -6 3 -25 -39 -49 -67 -55 -62 -8 9 77 113 118 146 45 35
56 37 70 10 9 -17 6 -29 -17 -67 -34 -56 -58 -63 -72 -21 -16 44 -31 26 -19
-22 10 -39 11 -40 29 -24 30 27 22 7 -22 -54 -53 -73 -100 -122 -115 -122 -12
0 -54 59 -54 75 0 4 8 1 18 -6 15 -13 16 -12 3 3 -7 10 -17 16 -21 13 -11 -7
-92 124 -84 136 3 5 0 8 -6 7 -6 -2 -21 14 -33 34 -21 36 -21 37 -3 57 l19 20
29 -20 c16 -11 54 -53 86 -92z m3762 -437 l0 -460 -70 0 -70 0 0 460 0 460 70
0 70 0 0 -460z m2430 -2 l0 -457 -76 1 -76 1 4 58 c1 31 0 61 -5 65 -12 13 -8
20 14 20 14 0 19 -5 16 -18 -3 -10 -1 -18 4 -18 5 0 8 13 7 29 -1 17 5 38 16
50 10 11 16 26 13 33 -4 9 -6 8 -6 -3 -1 -9 -9 -23 -18 -30 -15 -12 -16 -12
-9 6 12 33 12 37 -6 40 -10 2 -18 -1 -18 -5 0 -5 -3 -17 -6 -27 -4 -13 0 -11
16 7 l22 25 -17 -28 c-9 -16 -14 -35 -11 -43 4 -11 -1 -13 -18 -10 -32 6 -40
-4 -18 -20 14 -11 15 -15 3 -26 -12 -11 -13 -10 -8 5 4 9 4 17 0 17 -3 0 -12
-8 -19 -17 -13 -17 -14 -17 -8 0 6 16 3 16 -35 -4 -23 -11 -48 -18 -57 -15 -9
3 -12 2 -8 -5 3 -6 17 -8 31 -4 16 4 22 2 18 -5 -3 -5 -1 -10 5 -10 6 0 9 -3
7 -8 -3 -4 8 -7 23 -7 16 -1 26 3 24 7 -3 4 0 8 7 8 7 0 9 3 6 6 -4 4 -13 1
-22 -6 -11 -9 -15 -9 -15 -1 0 7 -4 9 -10 6 -5 -3 -10 -2 -10 4 0 5 5 13 10
16 6 3 10 1 10 -5 0 -6 4 -8 10 -5 5 3 19 8 30 10 51 10 -7 -62 -72 -89 -44
-19 -140 -21 -204 -5 -101 26 -188 149 -201 283 -13 138 49 278 150 340 62 38
182 48 252 22 55 -21 101 -72 84 -92 -15 -18 1 -17 25 1 11 8 14 15 8 15 -9 0
-12 46 -12 174 l0 174 75 -1 75 -1 0 -458z m-4095 438 c229 -60 369 -279 334
-521 -21 -150 -113 -277 -249 -343 -75 -37 -75 -37 -205 -37 -125 0 -132 1
-197 32 -165 78 -258 229 -258 417 0 217 111 375 308 443 78 26 189 30 267 9z
m2340 -1 c97 -26 179 -86 236 -175 l29 -44 -72 -29 c-62 -24 -73 -26 -80 -13
-23 40 -64 77 -113 101 -117 58 -264 23 -332 -79 -42 -61 -56 -113 -57 -201 0
-89 24 -169 69 -227 34 -46 34 -46 10 -43 -14 1 -28 -2 -32 -8 -4 -6 -1 -7 7
-2 10 6 12 4 6 -10 -6 -15 -4 -16 10 -4 24 20 44 20 73 -2 33 -24 117 -40 167
-32 72 11 143 59 180 122 l17 29 74 -25 74 -25 -27 -47 c-40 -70 -92 -119
-164 -154 -58 -28 -77 -32 -170 -35 -123 -5 -203 16 -282 74 -46 34 -118 121
-118 143 0 21 18 11 24 -14 4 -14 11 -23 16 -20 6 3 10 0 10 -7 0 -17 69 -97
70 -80 0 6 5 12 10 12 6 0 10 -8 8 -17 -2 -10 4 -19 12 -19 8 -1 21 -2 28 -3
7 0 11 -5 8 -10 -9 -14 37 -28 64 -19 25 8 25 8 -2 4 -16 -2 -28 0 -28 3 -1 3
-12 19 -25 36 -24 29 -25 29 -40 10 -8 -11 -13 -14 -10 -5 3 8 0 22 -5 30 -9
13 -11 13 -20 0 -5 -8 -10 -13 -11 -10 0 3 -2 13 -4 22 -2 13 3 17 18 15 12
-1 26 -6 30 -12 5 -6 7 -4 4 5 -3 11 -16 14 -46 13 -34 -1 -42 1 -37 13 3 9 6
20 6 25 0 5 7 9 15 9 8 0 15 5 15 11 0 7 12 10 29 7 26 -4 29 -2 20 14 -6 10
-14 16 -18 13 -5 -2 -17 7 -26 22 -15 22 -15 25 -2 20 11 -4 14 -2 10 9 -6 17
-11 18 -28 0 -11 -11 -11 -18 1 -41 18 -34 18 -32 -7 -38 -15 -4 -19 -2 -15 9
3 8 1 12 -4 9 -5 -3 -7 -20 -5 -38 3 -18 2 -25 -2 -17 -3 8 -13 21 -22 27 -14
11 -14 14 -1 22 10 7 5 9 -20 8 -33 -2 -35 -1 -53 58 -23 75 -25 240 -4 313
70 233 294 358 532 297z m-4261 -31 c3 -8 2 -12 -4 -9 -6 3 -10 10 -10 16 0
14 7 11 14 -7z m5093 -237 c29 -15 52 -31 51 -35 -2 -4 6 -18 16 -32 11 -14
16 -18 13 -7 -11 31 10 18 43 -25 44 -62 63 -135 58 -229 -8 -137 -83 -243
-204 -289 -66 -24 -191 -27 -253 -5 -51 18 -103 53 -96 65 3 5 1 11 -5 15 -5
3 -10 11 -10 16 0 6 4 8 8 5 4 -2 8 4 8 15 0 11 -5 17 -11 15 -5 -2 -9 -9 -7
-15 1 -7 -2 -10 -8 -6 -16 10 -12 -6 7 -27 9 -10 11 -18 5 -18 -11 0 -52 52
-52 65 0 4 7 2 15 -5 8 -7 15 -8 15 -3 0 6 10 15 23 21 l22 11 -22 0 c-13 1
-23 -3 -23 -8 0 -20 -42 -5 -55 19 -72 143 -24 344 102 431 71 49 108 59 213
56 80 -3 103 -7 147 -30z m1464 16 c38 -12 69 -32 105 -68 58 -57 79 -110 90
-217 l7 -68 -242 0 -241 0 0 -27 c0 -36 37 -100 72 -126 34 -25 122 -34 173
-17 21 7 55 28 76 47 l39 35 48 -38 c26 -21 49 -40 52 -42 12 -10 -96 -93
-148 -112 -82 -31 -225 -25 -298 12 -66 35 -117 92 -144 164 -18 49 -21 75
-18 154 2 80 7 104 31 153 31 63 106 128 174 153 53 19 161 17 224 -3z m-4071
-17 c9 -24 86 -285 116 -390 l16 -60 25 80 c14 43 47 150 74 237 l50 157 68 0
68 0 67 -222 c37 -123 70 -230 73 -238 2 -8 24 53 47 135 24 83 55 189 70 238
l27 87 75 0 c59 0 75 -3 71 -13 -3 -7 -51 -154 -107 -325 l-101 -312 -77 0
-77 0 -70 221 -69 220 -63 -198 c-87 -271 -69 -243 -155 -243 l-73 0 -104 313
c-57 171 -106 318 -109 325 -3 9 15 12 72 12 71 0 77 -2 86 -24z m2680 -46 c0
-5 -2 -10 -4 -10 -3 0 -8 5 -11 10 -3 6 -1 10 4 10 6 0 11 -4 11 -10z m-3636
-971 c14 -11 26 -24 26 -29 0 -17 -34 -20 -51 -4 -26 23 -73 15 -77 -14 -5
-31 13 -50 54 -58 53 -10 84 -39 84 -80 0 -59 -53 -93 -125 -80 -31 6 -75 45
-75 67 0 18 37 13 57 -8 37 -39 93 -26 93 23 0 21 -17 32 -78 49 -33 9 -62 45
-62 76 0 67 96 103 154 58z m372 2 c63 -38 83 -139 41 -202 -60 -90 -181 -88
-237 4 -39 62 -16 161 44 198 40 25 112 25 152 0z m364 -6 c0 -24 -3 -25 -60
-25 l-60 0 0 -35 0 -35 60 0 c53 0 60 -2 60 -20 0 -18 -7 -20 -60 -20 l-60 0
0 -60 c0 -53 -2 -60 -20 -60 -19 0 -20 7 -20 140 l0 140 80 0 c79 0 80 0 80
-25z m320 -1 c0 -24 -3 -26 -40 -22 l-40 4 0 -118 0 -118 -25 0 -25 0 0 118 0
118 -40 -4 c-37 -4 -40 -2 -40 22 l0 26 105 0 105 0 0 -26z m185 -74 c16 -55
30 -98 32 -97 2 2 15 46 31 98 23 78 31 95 49 97 22 3 19 11 67 -157 7 -25 15
-40 18 -35 3 5 16 51 29 102 21 84 26 92 47 92 15 0 22 -5 19 -12 -2 -7 -12
-40 -21 -73 -56 -197 -55 -195 -81 -195 -17 0 -25 6 -26 18 0 9 -13 55 -28
102 l-27 85 -29 -102 c-26 -93 -31 -103 -52 -103 -13 0 -23 1 -23 3 0 2 -65
224 -76 260 -4 13 0 17 19 17 23 0 27 -8 52 -100z m586 -42 l48 -138 -25 0
c-19 0 -28 7 -35 30 -10 29 -14 30 -69 30 -56 0 -58 -1 -63 -30 -5 -24 -12
-30 -31 -30 l-25 0 44 130 c24 71 46 134 50 140 4 6 18 10 32 8 23 -3 30 -16
74 -140z m345 109 c31 -36 32 -89 2 -119 l-21 -21 26 -48 c33 -57 33 -59 4
-59 -18 0 -30 12 -51 50 -23 42 -32 50 -57 50 -28 0 -29 -1 -29 -50 0 -47 -2
-50 -25 -50 l-25 0 0 141 0 141 76 -4 c69 -3 79 -6 100 -31z m334 7 c0 -25 -1
-26 -60 -22 l-60 3 0 -37 0 -38 60 0 c53 0 60 -2 60 -20 0 -18 -7 -20 -60 -20
l-60 0 0 -40 0 -40 60 0 c53 0 60 -2 60 -20 0 -18 -7 -20 -85 -20 l-85 0 0
140 0 140 85 0 c85 0 85 0 85 -26z m494 5 c14 -11 26 -24 26 -29 0 -17 -34
-20 -51 -4 -21 19 -58 15 -73 -8 -17 -27 3 -49 57 -65 129 -38 86 -184 -48
-159 -20 4 -43 18 -55 34 -20 25 -20 27 -4 39 14 11 21 9 40 -12 33 -36 82
-33 97 7 9 24 -13 45 -60 58 -44 11 -83 49 -83 81 0 9 12 31 26 48 32 38 87
43 128 10z m356 -5 c0 -24 -3 -26 -40 -22 l-40 4 0 -118 0 -118 -25 0 -25 0 0
115 0 115 -40 0 c-36 0 -40 3 -40 25 l0 25 105 0 105 0 0 -26z m170 -79 c0
-92 3 -108 20 -125 24 -24 48 -25 78 -4 20 14 22 23 22 125 l0 109 26 0 26 0
-4 -115 c-3 -110 -4 -116 -31 -142 -23 -23 -36 -28 -77 -28 -41 0 -54 5 -77
28 -27 26 -28 32 -31 142 l-4 115 26 0 26 0 0 -105z m441 95 c56 -16 92 -60
97 -122 3 -44 0 -59 -20 -88 -32 -47 -61 -60 -140 -60 l-68 0 0 140 0 140 48
0 c26 0 63 -5 83 -10z m279 -130 c0 -133 -1 -140 -20 -140 -19 0 -20 7 -20
140 0 133 1 140 20 140 19 0 20 -7 20 -140z m376 98 c43 -48 52 -102 26 -161
-26 -59 -62 -82 -127 -82 -65 0 -101 23 -127 82 -24 55 -17 110 20 154 34 41
57 49 121 45 47 -2 58 -8 87 -38z"/>
<path d="M1235 6949 c6 -17 4 -20 -6 -13 -9 5 -8 -1 4 -19 20 -31 22 -44 4
-28 -10 8 -17 7 -25 -1 -13 -13 -16 -84 -4 -91 4 -3 6 16 5 41 l-1 47 7 -40
c8 -39 8 -39 10 -7 0 20 6 32 15 32 8 0 17 10 19 23 l4 22 2 -23 c0 -13 6 -20
11 -17 6 4 8 10 5 15 -3 5 8 7 25 5 17 -2 28 0 25 5 -3 5 -13 6 -23 3 -9 -3
-14 -3 -10 2 9 10 -10 35 -25 35 -6 0 -2 -7 9 -15 18 -13 17 -14 -13 -12 -28
2 -31 5 -28 30 2 15 -1 27 -6 27 -6 0 -7 -9 -4 -21z"/>
<path d="M3466 6957 c3 -10 9 -15 12 -12 3 3 0 11 -7 18 -10 9 -11 8 -5 -6z"/>
<path d="M3395 6921 c-6 -11 35 -42 46 -35 11 7 -13 44 -28 44 -6 0 -14 -4
-18 -9z m36 -18 c13 -17 13 -17 -6 -3 -11 8 -22 16 -24 17 -2 2 0 3 6 3 6 0
17 -8 24 -17z"/>
<path d="M3487 6893 c-4 -3 -7 -11 -7 -17 0 -6 5 -5 12 2 6 6 9 14 7 17 -3 3
-9 2 -12 -2z"/>
<path d="M3344 6875 c-4 -8 -10 -13 -14 -10 -10 6 -48 -26 -52 -45 -2 -8 4
-14 12 -15 8 -1 14 -6 13 -11 -1 -6 5 -11 13 -11 11 0 11 4 -3 19 -9 10 -11
18 -5 18 6 0 14 -4 17 -10 3 -5 14 -9 23 -9 15 1 15 2 0 6 -10 2 -18 9 -18 14
0 13 24 11 40 -3 12 -11 12 -10 1 5 -7 9 -20 17 -27 17 -12 0 -12 4 -2 20 16
25 40 27 32 3 -5 -15 -4 -15 4 -3 6 8 8 18 6 22 -9 13 -34 9 -40 -7z m-17 -30
c0 -9 -5 -14 -11 -12 -6 2 -17 -3 -24 -12 -11 -14 -12 -13 -3 6 6 12 16 24 23
26 7 3 13 6 14 6 0 1 1 -6 1 -14z"/>
<path d="M1299 6878 c-5 -18 -6 -38 -1 -34 7 8 12 36 6 36 -2 0 -4 -1 -5 -2z"/>
<path d="M3467 6854 c-4 -4 -7 -14 -7 -23 0 -11 3 -12 11 -4 6 6 10 16 7 23
-2 6 -7 8 -11 4z"/>
<path d="M3491 6850 c0 -8 4 -24 9 -35 l9 -20 0 20 c0 11 -4 27 -9 35 -9 13
-10 13 -9 0z"/>
<path d="M3441 6829 c0 -13 4 -33 9 -44 7 -14 8 -8 3 20 -7 46 -13 59 -12 24z"/>
<path d="M1465 6779 c17 -20 34 -34 38 -31 8 4 -8 22 -48 52 -11 8 -6 -1 10
-21z"/>
<path d="M3200 6769 c-57 -42 -71 -59 -49 -59 7 0 9 3 6 7 -8 7 23 32 41 33 6
0 12 -5 12 -11 0 -5 -4 -8 -8 -5 -5 3 -8 -8 -8 -24 0 -16 3 -27 7 -24 5 2 6
11 3 18 -3 8 0 17 6 21 6 4 8 15 5 26 -4 10 -2 19 3 19 16 0 23 -30 11 -51
-10 -19 -9 -20 19 -5 15 8 34 22 42 31 11 14 10 19 -5 33 -15 13 -16 14 -7 1
16 -22 2 -33 -15 -11 -13 15 -13 15 -4 -5 13 -26 14 -33 3 -33 -5 0 -14 12
-21 26 -10 22 -9 28 6 40 10 7 16 14 13 14 -3 0 -30 -18 -60 -41z"/>
<path d="M1251 6784 c0 -11 3 -14 6 -6 3 7 2 16 -1 19 -3 4 -6 -2 -5 -13z"/>
<path d="M1231 6740 c-1 -19 -7 -44 -12 -55 -7 -15 -8 -10 -4 20 4 33 3 36 -6
19 -14 -28 6 -130 27 -138 7 -3 14 -1 14 4 0 6 -4 10 -9 10 -15 0 -22 49 -11
71 6 11 9 39 7 62 -3 40 -4 40 -6 7z"/>
<path d="M1455 6750 c3 -5 8 -10 11 -10 2 0 4 5 4 10 0 6 -5 10 -11 10 -5 0
-7 -4 -4 -10z"/>
<path d="M1251 6734 c0 -11 3 -14 6 -6 3 7 2 16 -1 19 -3 4 -6 -2 -5 -13z"/>
<path d="M1515 6740 c-3 -5 1 -10 10 -10 9 0 13 5 10 10 -3 6 -8 10 -10 10 -2
0 -7 -4 -10 -10z"/>
<path d="M2258 6723 c12 -2 32 -2 45 0 12 2 2 4 -23 4 -25 0 -35 -2 -22 -4z"/>
<path d="M1495 6694 c22 -22 33 -27 41 -20 7 7 8 15 3 22 -5 6 -8 13 -6 15 1
2 -4 -2 -10 -10 -11 -12 -16 -12 -35 4 -13 10 -10 5 7 -11z"/>
<path d="M2135 6713 c-11 -3 -24 -10 -30 -15 -7 -7 -1 -8 20 -2 17 4 50 7 75
6 32 -1 41 1 30 8 -16 10 -60 11 -95 3z"/>
<path d="M2570 6711 c23 -7 23 -8 5 -13 l-20 -5 20 1 c29 1 25 21 -5 23 l-25
2 25 -8z"/>
<path d="M3442 6695 c0 -16 2 -22 5 -12 2 9 2 23 0 30 -3 6 -5 -1 -5 -18z"/>
<path d="M3466 6705 c-3 -9 -6 -22 -5 -28 0 -7 5 -1 10 12 5 13 8 26 5 28 -2
2 -6 -3 -10 -12z"/>
<path d="M3489 6688 c-3 -22 -1 -34 4 -29 5 5 7 21 5 37 -3 27 -4 26 -9 -8z"/>
<path d="M2488 6703 c6 -2 18 -2 25 0 6 3 1 5 -13 5 -14 0 -19 -2 -12 -5z"/>
<path d="M1262 6680 c0 -14 2 -19 5 -12 2 6 2 18 0 25 -3 6 -5 1 -5 -13z"/>
<path d="M2060 6689 c11 -8 8 -9 -15 -5 -21 5 -26 4 -16 -3 11 -7 7 -12 -20
-19 -19 -6 -27 -11 -19 -11 24 -2 100 31 94 40 -3 5 -13 9 -22 9 -15 0 -15 -2
-2 -11z"/>
<path d="M2650 6690 c8 -5 22 -10 30 -10 13 0 13 1 0 10 -8 5 -22 10 -30 10
-13 0 -13 -1 0 -10z"/>
<path d="M2203 6683 c9 -2 23 -2 30 0 6 3 -1 5 -18 5 -16 0 -22 -2 -12 -5z"/>
<path d="M2408 6683 c6 -2 18 -2 25 0 6 3 1 5 -13 5 -14 0 -19 -2 -12 -5z"/>
<path d="M2493 6683 c9 -2 25 -2 35 0 9 3 1 5 -18 5 -19 0 -27 -2 -17 -5z"/>
<path d="M1988 6673 c7 -3 16 -2 19 1 4 3 -2 6 -13 5 -11 0 -14 -3 -6 -6z"/>
<path d="M2108 6673 c6 -2 18 -2 25 0 6 3 1 5 -13 5 -14 0 -19 -2 -12 -5z"/>
<path d="M2714 6669 c-3 -6 -2 -15 3 -20 5 -5 9 -1 10 11 2 22 -2 25 -13 9z"/>
<path d="M1640 6660 c-9 -6 -10 -10 -3 -10 6 0 15 5 18 10 8 12 4 12 -15 0z"/>
<path d="M2145 6660 c-11 -4 -29 -6 -40 -4 -12 3 -31 -4 -44 -15 -13 -12 -19
-21 -13 -21 6 0 17 6 24 14 8 8 27 11 54 8 33 -3 41 -1 41 12 0 9 -1 16 -1 15
-1 0 -10 -4 -21 -9z"/>
<path d="M2215 6660 c-19 -5 -6 -6 35 -3 36 3 67 7 69 9 8 7 -73 2 -104 -6z"/>
<path d="M2348 6663 c12 -2 32 -2 45 0 12 2 2 4 -23 4 -25 0 -35 -2 -22 -4z"/>
<path d="M2470 6660 c8 -5 24 -10 34 -10 26 0 18 6 -19 14 -22 5 -26 4 -15 -4z"/>
<path d="M2578 6663 c7 -3 16 -2 19 1 4 3 -2 6 -13 5 -11 0 -14 -3 -6 -6z"/>
<path d="M2746 6661 c-3 -5 3 -11 15 -14 16 -4 18 -3 8 9 -13 16 -16 17 -23 5z"/>
<path d="M1236 6651 c-4 -6 -2 -11 3 -11 6 0 11 -8 12 -17 0 -10 3 -13 5 -6 8
18 -11 49 -20 34z"/>
<path d="M1910 6650 c-11 -8 -7 -9 15 -4 23 4 26 3 15 -5 -18 -13 -1 -15 18
-2 11 7 10 10 -3 15 -22 8 -27 8 -45 -4z"/>
<path d="M2628 6653 c6 -2 18 -2 25 0 6 3 1 5 -13 5 -14 0 -19 -2 -12 -5z"/>
<path d="M2793 6645 c0 -8 4 -15 9 -15 4 0 8 4 8 9 0 6 -4 12 -8 15 -5 3 -9
-1 -9 -9z"/>
<path d="M1271 6628 c-1 -16 4 -28 9 -28 12 0 12 8 0 35 -8 18 -9 17 -9 -7z"/>
<path d="M2553 6643 c9 -2 23 -2 30 0 6 3 -1 5 -18 5 -16 0 -22 -2 -12 -5z"/>
<path d="M2670 6639 c0 -5 5 -7 10 -4 6 3 10 8 10 11 0 2 -4 4 -10 4 -5 0 -10
-5 -10 -11z"/>
<path d="M2990 6640 c-13 -8 -13 -10 2 -10 9 0 20 5 23 10 8 13 -5 13 -25 0z"/>
<path d="M1665 6631 c-3 -5 -2 -12 3 -15 5 -3 9 1 9 9 0 17 -3 19 -12 6z"/>
<path d="M1840 6625 c-19 -7 -28 -14 -20 -14 8 0 29 6 45 14 39 17 21 18 -25
0z"/>
<path d="M2630 6630 c8 -5 20 -10 25 -10 6 0 3 5 -5 10 -8 5 -19 10 -25 10 -5
0 -3 -5 5 -10z"/>
<path d="M1947 6623 c-11 -3 -16 -11 -13 -19 3 -8 1 -14 -4 -14 -6 0 -10 5
-10 10 0 6 -8 10 -17 10 -15 0 -14 -2 3 -15 13 -10 15 -14 5 -15 -8 0 -12 -2
-9 -5 7 -8 94 31 104 46 4 7 -3 5 -17 -4 -13 -9 -30 -17 -39 -17 -9 1 -5 6 10
15 25 14 21 17 -13 8z"/>
<path d="M2690 6620 c-11 -8 -7 -9 15 -4 37 8 45 14 19 14 -10 0 -26 -5 -34
-10z"/>
<path d="M3477 6623 c-4 -3 -7 -16 -7 -27 0 -18 -2 -19 -11 -6 -8 12 -9 11 -5
-6 4 -14 -2 -28 -19 -44 -19 -17 -22 -26 -13 -31 10 -6 8 -12 -7 -23 -11 -9
-16 -16 -12 -16 4 0 3 -9 -3 -20 -6 -11 -8 -20 -6 -20 10 0 57 90 52 99 -3 5
0 11 8 14 7 3 18 24 24 46 10 42 10 46 -1 34z"/>
<path d="M1685 6599 c-4 -11 -4 -23 -1 -26 3 -4 6 0 6 7 0 7 8 19 18 26 16 12
16 13 0 14 -9 0 -20 -9 -23 -21z"/>
<path d="M1724 6603 c-4 -10 -6 -21 -6 -25 1 -5 -4 -8 -10 -8 -9 0 -8 -4 2
-10 8 -5 20 -10 25 -10 6 0 3 5 -5 10 -11 7 -11 10 -2 10 7 0 10 5 7 10 -4 6
-1 17 5 25 7 9 8 15 2 15 -5 0 -13 -8 -18 -17z"/>
<path d="M1770 6616 c0 -2 7 -6 15 -10 8 -3 15 -1 15 4 0 6 -7 10 -15 10 -8 0
-15 -2 -15 -4z"/>
<path d="M2873 6610 c-22 -20 -69 -26 -98 -14 -16 7 -37 13 -45 13 -8 0 5 -8
30 -18 32 -13 52 -16 68 -10 13 5 27 7 32 4 4 -3 11 2 14 11 3 9 12 14 19 11
8 -3 29 -2 48 3 33 7 32 8 -13 8 -25 0 -50 -4 -55 -8z"/>
<path d="M3015 6610 c3 -5 10 -10 16 -10 5 0 9 5 9 10 0 6 -7 10 -16 10 -8 0
-12 -4 -9 -10z"/>
<path d="M3412 6587 c-10 -27 -9 -29 2 -15 7 10 16 15 19 11 10 -9 8 9 -1 24
-5 8 -12 2 -20 -20z"/>
<path d="M1750 6589 c0 -5 5 -7 10 -4 6 3 10 8 10 11 0 2 -4 4 -10 4 -5 0 -10
-5 -10 -11z"/>
<path d="M1823 6593 c9 -2 25 -2 35 0 9 3 1 5 -18 5 -19 0 -27 -2 -17 -5z"/>
<path d="M2940 6596 c0 -2 7 -7 16 -10 8 -3 12 -2 9 4 -6 10 -25 14 -25 6z"/>
<path d="M1290 6575 c0 -8 4 -15 10 -15 5 0 7 7 4 15 -4 8 -8 15 -10 15 -2 0
-4 -7 -4 -15z"/>
<path d="M2984 6568 l-19 -21 30 18 c41 26 40 25 23 25 -8 0 -23 -10 -34 -22z"/>
<path d="M1237 6553 c3 -7 6 -13 8 -13 2 0 5 6 8 13 3 8 -1 14 -8 14 -7 0 -11
-6 -8 -14z"/>
<path d="M1274 6539 c0 -11 8 -24 16 -29 9 -6 11 -13 5 -17 -18 -14 -14 -30
13 -54 15 -13 21 -17 15 -9 -10 11 -10 17 3 31 10 12 12 19 4 24 -6 3 -9 2 -8
-3 2 -6 -1 -10 -7 -11 -5 0 -10 8 -10 20 0 11 -6 23 -14 28 -7 5 -11 13 -7 19
3 6 2 13 -2 16 -5 3 -9 -4 -8 -15z"/>
<path d="M1760 6548 c0 -4 14 -8 30 -8 17 0 30 2 30 4 0 2 -13 6 -30 8 -16 3
-30 1 -30 -4z"/>
<path d="M2898 6543 c12 -2 30 -2 40 0 9 3 -1 5 -23 4 -22 0 -30 -2 -17 -4z"/>
<path d="M3392 6538 c-15 -15 -16 -62 -1 -53 6 4 8 14 4 23 -3 8 0 19 7 23 7
4 10 10 7 13 -3 3 -11 0 -17 -6z"/>
<path d="M1312 6526 c7 -8 15 -12 17 -11 5 6 -10 25 -20 25 -5 0 -4 -6 3 -14z"/>
<path d="M3331 6465 c-17 -19 -26 -35 -19 -35 9 0 9 -3 -2 -9 -8 -6 -18 -7
-22 -5 -4 3 -18 -2 -30 -10 -12 -9 -17 -16 -11 -16 7 0 15 5 18 10 3 6 11 10
16 10 6 0 8 -4 4 -9 -3 -5 -2 -12 3 -15 10 -6 37 10 38 24 3 21 4 22 17 12 10
-8 13 -6 13 9 0 12 -5 18 -13 15 -19 -8 -16 5 9 31 12 13 19 23 16 23 -2 0
-19 -16 -37 -35z m-11 -59 c0 -2 -7 -7 -16 -10 -8 -3 -12 -2 -9 4 6 10 25 14
25 6z"/>
<path d="M3376 6455 c-9 -26 -7 -32 5 -12 6 10 9 21 6 23 -2 3 -7 -2 -11 -11z"/>
<path d="M3216 6375 c-7 -20 9 -28 23 -11 9 10 8 15 -3 19 -8 3 -17 -1 -20 -8z"/>
<path d="M3278 6351 c-10 -16 -15 -18 -27 -8 -11 10 -13 9 -9 -3 2 -8 16 -15
31 -15 14 -1 24 1 22 4 -3 2 0 10 6 17 7 8 7 14 0 18 -6 4 -16 -2 -23 -13z"/>
<path d="M3304 6308 c-4 -6 -3 -8 4 -4 6 3 15 -2 21 -11 9 -16 10 -16 11 -2 0
20 -27 33 -36 17z"/>
<path d="M3323 6252 c0 -12 10 -32 22 -45 11 -13 16 -17 12 -10 -5 6 -6 17 -2
23 4 6 3 10 -2 9 -20 -3 -25 2 -13 16 7 9 10 18 6 22 -3 3 -6 0 -6 -8 0 -12
-2 -11 -10 1 -7 12 -9 10 -7 -8z"/>
<path d="M3361 6258 c0 -9 4 -20 10 -23 6 -4 8 -13 5 -21 -3 -8 -2 -14 3 -14
13 0 19 60 8 67 -6 3 -7 1 -3 -5 3 -6 2 -13 -3 -16 -5 -4 -12 2 -14 11 -4 16
-5 16 -6 1z"/>
<path d="M1286 6209 c-10 -18 -15 -29 -10 -26 5 3 18 -1 29 -9 16 -12 17 -16
6 -23 -7 -5 -9 -11 -4 -14 5 -3 22 15 37 39 22 35 26 48 17 57 -9 9 -11 8 -5
-7 6 -15 4 -17 -6 -11 -10 6 -12 4 -7 -8 3 -9 2 -19 -2 -22 -12 -7 -23 24 -14
37 3 6 1 8 -5 4 -5 -3 -12 -1 -14 4 -2 6 -12 -4 -22 -21z m34 -19 c13 -25 13
-25 -8 -6 -12 10 -19 23 -16 28 7 11 7 11 24 -22z"/>
<path d="M3430 6180 c6 -11 13 -20 16 -20 2 0 0 9 -6 20 -6 11 -13 20 -16 20
-2 0 0 -9 6 -20z"/>
<path d="M3375 6170 c-3 -5 -1 -10 4 -10 6 0 11 5 11 10 0 6 -2 10 -4 10 -3 0
-8 -4 -11 -10z"/>
<path d="M3413 6149 c-2 -23 3 -25 10 -4 4 8 3 16 -1 19 -4 3 -9 -4 -9 -15z"/>
<path d="M3386 6137 c3 -10 9 -15 12 -12 3 3 0 11 -7 18 -10 9 -11 8 -5 -6z"/>
<path d="M1239 6118 c-9 -17 -9 -24 5 -33 9 -7 16 -17 16 -22 0 -5 7 -10 15
-10 19 0 20 16 1 23 -8 3 -12 13 -9 22 4 14 3 15 -6 2 -15 -21 -25 -5 -11 19
6 12 8 21 6 21 -3 0 -11 -10 -17 -22z"/>
<path d="M3407 6090 c3 -11 7 -20 9 -20 2 0 4 9 4 20 0 11 -4 20 -9 20 -5 0
-7 -9 -4 -20z"/>
<path d="M3463 6089 c-14 -14 4 -72 19 -63 6 4 8 1 6 -7 -3 -8 -10 -13 -16
-12 -6 1 -7 -7 -4 -20 4 -15 7 -17 10 -7 3 8 9 18 15 21 6 4 4 21 -4 45 -7 22
-12 42 -11 47 3 10 -2 9 -15 -4z"/>
<path d="M1212 6038 c-6 -24 -14 -59 -17 -78 -5 -30 -4 -32 6 -15 11 18 13 16
26 -20 7 -22 11 -29 8 -15 -3 14 -5 35 -5 48 0 13 -4 20 -10 17 -5 -3 -10 3
-10 14 0 15 5 19 18 15 13 -5 14 -4 3 4 -9 6 -11 19 -6 41 10 47 -1 37 -13
-11z"/>
<path d="M1241 6054 c0 -11 3 -14 6 -6 3 7 2 16 -1 19 -3 4 -6 -2 -5 -13z"/>
<path d="M3420 6049 c0 -5 5 -7 10 -4 6 3 10 8 10 11 0 2 -4 4 -10 4 -5 0 -10
-5 -10 -11z"/>
<path d="M1253 5972 c-1 -45 0 -45 7 -12 5 19 5 40 1 47 -3 7 -7 -9 -8 -35z"/>
<path d="M3445 5970 c6 -45 6 -215 0 -260 l-4 -35 9 35 c13 44 12 244 -1 273
-8 18 -8 16 -4 -13z"/>
<path d="M3495 5960 c4 -14 11 -77 15 -140 l7 -115 -1 127 c-1 94 -5 130 -15
140 -12 11 -13 9 -6 -12z"/>
<path d="M1192 5895 c0 -16 2 -22 5 -12 2 9 2 23 0 30 -3 6 -5 -1 -5 -18z"/>
<path d="M3481 5894 c0 -11 3 -14 6 -6 3 7 2 16 -1 19 -3 4 -6 -2 -5 -13z"/>
<path d="M1216 5860 c9 -33 12 -36 25 -23 6 6 9 19 6 29 -4 15 -5 13 -6 -6
l-2 -25 -15 25 -15 25 7 -25z"/>
<path d="M1180 5851 c0 -6 4 -13 10 -16 6 -3 7 1 4 9 -7 18 -14 21 -14 7z"/>
<path d="M3472 5810 c0 -14 2 -19 5 -12 2 6 2 18 0 25 -3 6 -5 1 -5 -13z"/>
<path d="M1197 5806 c-4 -10 -7 -25 -6 -34 0 -11 4 -9 10 7 5 13 8 29 6 35 -2
5 -6 2 -10 -8z"/>
<path d="M1234 5757 c-1 -23 1 -31 3 -18 4 19 7 21 14 10 7 -11 9 -9 9 7 0 12
-6 26 -12 32 -10 8 -13 1 -14 -31z"/>
<path d="M3484 5755 c-3 -8 -4 -20 -2 -27 3 -7 7 -1 10 15 6 29 1 36 -8 12z"/>
<path d="M1196 5710 c8 -43 14 -51 14 -19 0 13 -5 31 -10 39 -7 11 -8 5 -4
-20z"/>
<path d="M1262 5710 c0 -14 2 -19 5 -12 2 6 2 18 0 25 -3 6 -5 1 -5 -13z"/>
<path d="M3482 5670 c-7 -29 -8 -49 -1 -59 8 -12 8 -10 3 8 -4 18 -3 22 7 16
9 -6 10 -3 5 10 -4 10 -3 21 2 24 5 3 6 15 2 25 -5 16 -9 11 -18 -24z"/>
<path d="M1220 5685 c0 -8 4 -15 10 -15 5 0 7 7 4 15 -4 8 -8 15 -10 15 -2 0
-4 -7 -4 -15z"/>
<path d="M1252 5655 c0 -16 2 -22 5 -12 2 9 2 23 0 30 -3 6 -5 -1 -5 -18z"/>
<path d="M1275 5652 c3 -23 -1 -38 -14 -51 -18 -18 -19 -18 -30 21 -7 22 -14
38 -17 36 -2 -3 3 -29 13 -58 15 -47 18 -50 25 -29 5 13 14 27 21 31 17 11 27
-13 15 -36 -6 -12 -7 -18 -3 -14 4 4 13 1 19 -8 10 -13 12 -13 12 5 0 11 -4
18 -8 15 -4 -2 -7 4 -7 13 1 10 -7 38 -15 63 -13 37 -15 39 -11 12z"/>
<path d="M3427 5648 c-3 -12 -1 -29 4 -37 9 -14 10 -13 5 2 -3 10 -1 27 4 38
6 11 7 19 2 19 -6 0 -12 -10 -15 -22z"/>
<path d="M3450 5625 c0 -12 5 -26 11 -32 8 -8 8 -17 0 -32 -7 -12 -9 -21 -7
-21 3 0 10 9 16 19 7 14 6 29 -5 53 -10 24 -14 28 -15 13z"/>
<path d="M3400 5581 c0 -6 4 -13 10 -16 6 -3 7 1 4 9 -7 18 -14 21 -14 7z"/>
<path d="M3437 5583 c-4 -3 -7 -11 -7 -17 0 -6 5 -5 12 2 6 6 9 14 7 17 -3 3
-9 2 -12 -2z"/>
<path d="M3380 5539 c-7 -11 -9 -23 -6 -27 3 -3 6 0 6 7 0 7 4 10 8 7 4 -2 8
4 8 15 0 24 -3 24 -16 -2z"/>
<path d="M3420 5543 c0 -7 4 -14 10 -18 5 -3 7 -12 3 -20 -3 -8 -3 -15 0 -15
13 0 13 28 1 45 -8 10 -14 14 -14 8z"/>
<path d="M1330 5522 c0 -7 -5 -10 -11 -6 -15 9 5 -29 24 -45 24 -19 29 14 7
41 -11 13 -19 17 -20 10z m24 -28 c5 -14 4 -15 -9 -4 -17 14 -19 20 -6 20 5 0
12 -7 15 -16z"/>
<path d="M1274 5498 c-4 -7 -3 -10 1 -5 5 4 22 -5 39 -20 l30 -28 -25 32 c-27
35 -34 39 -45 21z"/>
<path d="M3404 5499 c-3 -6 -1 -16 4 -21 8 -8 11 -5 9 11 -1 24 -3 25 -13 10z"/>
<path d="M3352 5488 c-5 -7 -6 -22 -3 -32 7 -17 8 -18 14 -3 3 9 2 17 -4 17
-6 0 -7 5 -4 10 4 6 11 7 17 4 7 -4 8 -2 4 4 -9 15 -11 15 -24 0z"/>
<path d="M1296 5455 c10 -16 26 -38 36 -48 18 -18 23 -12 18 22 -1 13 1 13 17
1 10 -8 15 -10 11 -6 -4 5 -2 16 5 25 10 14 10 14 -4 4 -9 -7 -19 -10 -22 -6
-4 3 -9 -2 -13 -11 -6 -15 -11 -12 -36 16 l-29 33 17 -30z"/>
<path d="M3317 5436 c-19 -29 -14 -35 10 -11 8 8 13 20 11 26 -2 7 -12 0 -21
-15z"/>
<path d="M3370 5421 c0 -7 -7 -11 -15 -8 -8 4 -17 2 -20 -3 -4 -6 -1 -10 5
-10 6 0 8 -5 5 -11 -4 -6 -14 -8 -22 -4 -12 4 -13 3 -5 -8 7 -8 9 -17 5 -20
-3 -4 -2 -7 3 -7 13 0 58 69 50 77 -3 3 -6 1 -6 -6z"/>
<path d="M1410 5410 c0 -5 6 -10 13 -10 7 0 20 -9 30 -20 9 -11 13 -20 7 -20
-5 0 -12 5 -15 10 -4 6 -11 8 -16 4 -17 -10 2 -24 31 -22 l30 2 -23 24 c-28
30 -57 47 -57 32z"/>
<path d="M3275 5399 c-9 -14 -2 -20 14 -10 8 6 9 11 3 15 -6 3 -14 1 -17 -5z"/>
<path d="M1395 5380 c-3 -5 -1 -10 4 -10 6 0 11 5 11 10 0 6 -2 10 -4 10 -3 0
-8 -4 -11 -10z"/>
<path d="M3291 5367 c-1 -12 -5 -16 -13 -10 -8 4 -7 -3 3 -17 16 -26 15 -50
-3 -50 -6 0 -8 6 -5 14 3 8 -1 22 -9 33 -14 17 -14 17 -5 -4 7 -14 8 -24 1
-28 -5 -3 -10 -1 -10 6 0 7 -3 9 -7 6 -8 -9 38 -53 51 -49 4 2 6 -4 2 -13 -4
-11 -2 -14 6 -9 8 5 9 2 5 -10 -4 -11 -3 -15 4 -11 5 4 8 12 6 18 -2 7 0 20 5
30 6 12 5 17 -4 15 -7 -2 -13 5 -13 14 0 9 -4 20 -8 24 -15 15 -6 26 11 13 15
-12 16 -12 6 1 -6 8 -14 22 -17 30 -4 12 -6 11 -6 -3z m13 -85 c3 -5 -1 -9 -9
-9 -8 0 -12 4 -9 9 3 4 7 8 9 8 2 0 6 -4 9 -8z"/>
<path d="M1414 5343 c16 -20 36 -23 36 -6 0 4 -3 3 -7 0 -3 -4 -16 1 -27 10
-21 18 -21 18 -2 -4z"/>
<path d="M1501 5324 c0 -11 3 -14 6 -6 3 7 2 16 -1 19 -3 4 -6 -2 -5 -13z"/>
<path d="M1360 5280 c0 -5 5 -10 10 -10 6 0 10 5 10 10 0 6 -4 10 -10 10 -5 0
-10 -4 -10 -10z"/>
<path d="M1344 5245 c0 -16 4 -21 15 -17 10 4 11 7 3 10 -7 2 -10 8 -7 12 3 5
2 11 -3 14 -4 2 -8 -6 -8 -19z"/>
<path d="M3335 5254 c3 -13 0 -28 -10 -37 -17 -17 -20 -31 -5 -22 6 3 14 -4
19 -17 8 -21 8 -21 13 9 2 18 0 29 -5 26 -5 -3 -7 3 -3 13 3 11 1 26 -5 34 -8
12 -9 11 -4 -6z"/>
<path d="M1291 5188 c-14 -23 -14 -23 8 -4 22 20 25 26 13 26 -4 0 -13 -10
-21 -22z"/>
<path d="M1328 5198 c-4 -10 -3 -20 3 -24 6 -3 8 -13 4 -22 -4 -11 3 -8 19 7
15 14 26 27 26 30 0 3 -5 0 -12 -7 -18 -18 -26 -15 -30 11 -3 19 -4 19 -10 5z"/>
<path d="M3373 5185 c-3 -9 -3 -18 -1 -21 3 -3 8 4 11 16 6 23 -1 27 -10 5z"/>
<path d="M1300 5160 c0 -5 5 -10 10 -10 6 0 10 5 10 10 0 6 -4 10 -10 10 -5 0
-10 -4 -10 -10z"/>
<path d="M3321 5165 c1 -19 18 -51 18 -35 0 8 -4 22 -9 30 -5 8 -9 11 -9 5z"/>
<path d="M3391 5146 c-1 -29 -2 -29 -17 -10 -14 18 -15 18 -4 -5 14 -29 34
-14 27 20 -4 21 -4 20 -6 -5z"/>
<path d="M1256 5125 c-4 -10 -2 -14 5 -9 7 4 9 -1 4 -15 -5 -16 -3 -20 9 -15
13 5 13 10 4 27 -15 30 -15 30 -22 12z"/>
<path d="M1301 5114 c0 -11 3 -14 6 -6 3 7 2 16 -1 19 -3 4 -6 -2 -5 -13z"/>
<path d="M1237 5071 c-2 -11 -1 -23 3 -28 5 -4 10 -17 13 -28 3 -11 4 0 2 23
-4 50 -10 62 -18 33z"/>
<path d="M3396 5049 c-3 -17 -6 -52 -7 -78 0 -35 -2 -41 -9 -26 -6 13 -7 6 -3
-23 4 -33 3 -42 -8 -40 -7 2 -14 -4 -16 -12 -4 -20 14 -47 24 -36 4 5 2 11 -4
13 -7 3 -13 11 -13 19 0 7 6 11 14 8 11 -4 16 8 20 53 4 32 9 79 12 106 5 53
0 63 -10 16z"/>
<path d="M1270 5059 c0 -5 5 -7 10 -4 6 3 10 8 10 11 0 2 -4 4 -10 4 -5 0 -10
-5 -10 -11z"/>
<path d="M1287 5043 c-4 -3 -7 -11 -7 -17 0 -6 5 -5 12 2 6 6 9 14 7 17 -3 3
-9 2 -12 -2z"/>
<path d="M3371 5035 c-1 -13 -4 -16 -9 -8 -4 6 -8 -12 -8 -40 l-2 -52 14 50
c7 28 12 55 10 60 -3 6 -5 1 -5 -10z"/>
<path d="M1221 5023 c2 -10 -3 -35 -10 -55 -7 -21 -11 -46 -8 -55 2 -10 8 1
12 25 11 60 27 52 21 -10 -4 -40 -3 -44 2 -18 5 20 11 41 15 47 4 6 3 14 -3
18 -5 3 -10 19 -10 36 0 16 -5 29 -11 29 -5 0 -9 -8 -8 -17z"/>
<path d="M3333 4990 c0 -30 2 -43 4 -27 2 15 2 39 0 55 -2 15 -4 2 -4 -28z"/>
<path d="M1271 5000 c-1 -3 -4 -27 -6 -55 -3 -46 -3 -48 6 -16 8 26 8 91 0 71z"/>
<path d="M2180 4899 c0 -56 3 -100 6 -97 3 4 6 47 6 97 0 69 3 91 13 91 9 0
13 -11 13 -30 -1 -17 2 -34 6 -38 4 -4 6 11 4 33 -2 33 -7 41 -25 43 -23 3
-23 1 -23 -99z"/>
<path d="M3323 4897 c3 -22 2 -35 -4 -32 -8 6 -11 -3 -14 -50 0 -11 5 -26 11
-32 21 -22 24 -14 7 16 -16 26 -16 30 0 45 12 12 15 26 10 49 -8 46 -17 49
-10 4z"/>
<path d="M3342 4910 c0 -14 2 -19 5 -12 2 6 2 18 0 25 -3 6 -5 1 -5 -13z"/>
<path d="M2222 4875 c0 -16 2 -22 5 -12 2 9 2 23 0 30 -3 6 -5 -1 -5 -18z"/>
<path d="M1253 4835 c0 -33 2 -45 4 -27 2 18 2 45 0 60 -2 15 -4 0 -4 -33z"/>
<path d="M1187 4800 c-4 -30 -6 -80 -6 -110 1 -46 3 -40 11 35 9 102 6 159 -5
75z"/>
<path d="M1231 4840 c-1 -8 -5 -26 -7 -40 -3 -18 -2 -22 6 -14 7 7 10 24 7 40
-2 16 -5 22 -6 14z"/>
<path d="M3341 4824 c0 -11 3 -14 6 -6 3 7 2 16 -1 19 -3 4 -6 -2 -5 -13z"/>
<path d="M2206 4805 c-9 -26 -7 -32 5 -12 6 10 9 21 6 23 -2 3 -7 -2 -11 -11z"/>
<path d="M3355 4802 c-9 -6 -16 -52 -8 -52 5 0 24 52 20 56 -1 2 -7 0 -12 -4z"/>
<path d="M3280 4776 c0 -3 4 -16 9 -29 8 -20 6 -29 -8 -41 -10 -9 -21 -13 -25
-9 -4 4 -4 0 0 -10 6 -15 9 -14 29 9 19 22 21 31 13 55 -9 25 -18 38 -18 25z"/>
<path d="M2220 4745 c0 -15 -5 -24 -12 -22 -9 1 -12 -11 -11 -40 1 -24 -2 -43
-7 -43 -14 0 -20 30 -15 73 l5 42 -10 -35 c-5 -19 -7 -46 -4 -58 2 -13 1 -21
-4 -18 -16 10 -21 -48 -7 -70 9 -14 10 -26 3 -40 -9 -19 -9 -19 6 0 22 28 31
13 11 -18 -10 -14 -13 -26 -8 -26 12 0 35 49 28 60 -3 5 -1 11 5 15 5 3 10 14
9 23 0 12 -3 11 -9 -5 -5 -13 -14 -23 -19 -23 -18 0 -29 34 -20 59 8 19 12 21
24 11 12 -10 15 -10 15 1 0 11 3 11 11 -1 9 -13 10 -13 6 2 -21 64 -18 118 3
66 7 -19 9 -14 9 25 1 26 -1 47 -4 47 -3 0 -5 -11 -5 -25z"/>
<path d="M1206 4728 c-3 -13 -5 -36 -5 -53 1 -21 4 -15 10 20 8 52 6 72 -5 33z"/>
<path d="M1245 4215 c0 -297 1 -417 2 -267 2 150 2 393 0 540 -1 147 -2 24 -2
-273z"/>
<path d="M3266 4735 c-9 -26 -7 -32 5 -12 6 10 9 21 6 23 -2 3 -7 -2 -11 -11z"/>
<path d="M3309 4705 c0 -6 -3 -21 -5 -35 l-5 -25 17 23 c12 18 13 27 5 35 -6
6 -11 7 -12 2z"/>
<path d="M3240 4674 c0 -6 7 -19 16 -30 14 -18 14 -18 3 6 -14 31 -19 36 -19
24z"/>
<path d="M1215 4481 c2 -112 0 -160 -7 -150 -8 11 -9 10 -4 -4 3 -10 7 -35 7
-55 1 -33 2 -31 9 14 4 28 4 120 -1 205 l-7 154 3 -164z"/>
<path d="M3214 4612 c-6 -9 -21 -35 -34 -56 -13 -22 -19 -37 -13 -33 16 10 48
-42 34 -56 -8 -8 -11 -6 -11 7 0 9 -4 14 -10 11 -5 -3 -10 2 -10 11 0 10 -3
15 -6 11 -4 -3 -3 -14 1 -24 9 -20 14 -53 8 -53 -2 0 -8 10 -13 23 l-9 22 0
-24 c-1 -20 -4 -22 -13 -13 -10 10 -10 17 0 33 8 12 12 23 9 25 -2 2 -24 -25
-50 -61 -31 -43 -44 -70 -40 -82 5 -13 3 -15 -12 -10 -15 6 -16 5 -6 -7 9 -11
10 -20 2 -35 -14 -25 -14 -34 -1 -26 6 3 10 2 10 -4 0 -17 -19 -22 -39 -11
-13 7 -22 7 -26 0 -10 -17 -25 -11 -18 8 4 9 -6 3 -21 -15 -15 -18 -26 -33
-24 -35 6 -7 -37 -66 -44 -62 -5 3 -3 13 4 22 9 12 6 11 -10 -2 -16 -14 -19
-22 -11 -32 6 -7 6 -14 1 -18 -6 -3 -13 1 -16 10 -5 13 -9 14 -21 4 -7 -6 -12
-17 -9 -25 3 -8 -1 -12 -12 -12 -9 1 -19 -5 -21 -13 -4 -13 -3 -13 5 -1 8 12
13 12 25 2 9 -7 18 -8 21 -2 3 5 18 8 33 6 24 -2 25 -1 10 10 -9 6 -14 15 -10
18 3 4 12 2 20 -5 11 -9 19 -7 36 11 16 16 17 20 6 16 -21 -8 -36 14 -18 25 7
5 21 4 30 -1 12 -6 20 -5 25 3 4 7 3 8 -4 4 -21 -12 -13 10 10 30 21 19 21 19
14 -1 -4 -12 10 -3 38 25 31 29 43 47 36 54 -15 15 -12 30 4 17 11 -9 16 -9
22 0 4 8 3 9 -5 5 -18 -12 -25 22 -7 39 9 9 16 22 15 28 0 9 -2 8 -6 0 -2 -7
-9 -13 -14 -13 -6 0 -5 8 1 20 6 10 17 17 24 14 22 -8 26 -43 8 -54 -10 -5
-12 -10 -5 -10 11 0 57 53 103 118 l23 34 -22 28 c-22 31 -29 52 -9 32 9 -9
14 -7 24 6 12 15 13 13 9 -18 l-5 -35 12 34 c10 28 9 35 -5 43 -14 7 -15 13
-6 29 13 25 7 35 -7 11z m1 -53 c-10 -15 -25 -10 -19 6 4 8 10 12 15 9 5 -3 7
-10 4 -15z m-75 -141 c0 -6 -7 -5 -15 2 -9 7 -15 8 -15 2 0 -17 30 -23 36 -7
4 8 10 12 16 9 5 -3 -1 -14 -12 -24 -12 -10 -21 -22 -21 -27 -1 -18 -7 -12
-13 12 -4 14 -11 23 -16 20 -6 -4 -5 5 1 19 10 20 15 23 26 15 7 -6 13 -16 13
-21z m-120 -179 c0 -5 -4 -10 -10 -10 -5 -1 -14 -2 -19 -3 -5 0 -13 -4 -17 -8
-12 -13 -26 -9 -18 5 4 7 3 8 -2 4 -5 -5 -9 -15 -9 -23 0 -17 -20 -19 -21 -1
-1 22 28 48 41 37 9 -8 14 -6 18 5 6 15 37 10 37 -6z m-126 -94 c5 0 11 -6 14
-12 6 -20 -13 -15 -34 9 -11 13 -13 18 -4 12 8 -5 19 -9 24 -9z m-57 -12 c-4
-3 -1 -11 6 -17 7 -6 10 -10 8 -9 -2 2 -9 -2 -16 -7 -8 -7 -11 -3 -9 13 3 28
3 27 11 27 3 0 3 -3 0 -7z"/>
<path d="M3290 4621 c0 -7 -5 -9 -12 -5 -7 5 -8 3 -3 -5 5 -9 10 -10 18 -2 6
6 8 14 4 18 -4 3 -7 1 -7 -6z"/>
<path d="M1182 4093 l-2 -523 28 1 c23 2 24 2 5 6 l-23 4 -3 517 -2 517 -3
-522z"/>
<path d="M2171 4594 c0 -11 3 -14 6 -6 3 7 2 16 -1 19 -3 4 -6 -2 -5 -13z"/>
<path d="M3252 4580 c0 -14 2 -19 5 -12 2 6 2 18 0 25 -3 6 -5 1 -5 -13z"/>
<path d="M2123 4527 c3 -10 2 -17 -2 -17 -5 0 -7 -9 -4 -20 6 -24 19 -26 27
-4 4 9 2 13 -5 8 -7 -4 -9 0 -5 14 4 12 2 23 -5 28 -9 5 -10 2 -6 -9z"/>
<path d="M2089 4439 c-8 -16 -8 -24 1 -33 8 -8 10 -7 5 6 -5 12 -1 20 9 24 17
7 22 24 6 24 -5 0 -14 -9 -21 -21z"/>
<path d="M2130 4444 c0 -8 5 -12 11 -8 8 4 9 -1 5 -17 -6 -19 -5 -21 4 -7 11
17 4 48 -11 48 -5 0 -9 -7 -9 -16z"/>
<path d="M2040 4350 c-12 -29 -11 -33 9 -53 17 -17 21 -18 15 -4 -3 9 -10 17
-16 17 -5 0 -6 5 -3 10 5 8 11 7 20 0 11 -10 13 -8 10 9 -2 11 -8 28 -13 37
-7 13 -11 10 -22 -16z m23 -3 c3 -8 -1 -14 -8 -14 -7 0 -11 6 -8 14 3 7 6 13
8 13 2 0 5 -6 8 -13z"/>
<path d="M2080 4366 c0 -8 4 -17 9 -20 5 -4 7 3 4 14 -6 23 -13 26 -13 6z"/>
<path d="M2106 4365 c4 -8 8 -15 10 -15 2 0 4 7 4 15 0 8 -4 15 -10 15 -5 0
-7 -7 -4 -15z"/>
<path d="M2085 4290 c-19 -36 -19 -36 -45 -8 -25 27 -50 12 -31 -19 11 -16 11
-16 6 5 -8 29 0 28 29 -3 l23 -24 22 39 c12 22 20 40 17 40 -3 0 -12 -13 -21
-30z"/>
<path d="M2991 4302 c-7 -14 -6 -18 9 -19 10 -1 21 5 24 14 6 14 4 14 -11 2
-15 -12 -16 -12 -10 4 8 22 0 22 -12 -1z"/>
<path d="M1979 4243 c-6 -33 -5 -52 2 -48 4 3 10 -3 12 -12 4 -16 5 -16 6 -1
0 9 -3 20 -9 23 -5 3 -10 11 -10 16 0 6 4 7 10 4 6 -3 7 1 4 9 -7 17 -13 21
-15 9z"/>
<path d="M2038 4238 c8 -10 9 -19 3 -22 -5 -4 -14 2 -20 11 -6 10 -11 13 -11
8 0 -6 6 -17 12 -23 10 -10 10 -15 -2 -22 -8 -5 -10 -10 -4 -10 7 0 19 11 27
24 15 22 15 25 -1 38 -15 12 -16 11 -4 -4z"/>
<path d="M1207 4186 c-4 -10 -5 -21 -2 -24 9 -9 17 6 13 25 -3 17 -4 17 -11
-1z"/>
<path d="M1920 4166 c-10 -13 -8 -15 8 -11 33 6 46 -18 22 -40 -22 -20 -28 -7
-7 14 9 11 7 10 -10 0 -13 -8 -23 -17 -23 -22 0 -4 -5 -5 -10 -2 -6 4 -7 12
-3 19 4 7 0 3 -9 -7 -10 -11 -18 -24 -17 -31 0 -7 2 -7 6 2 8 19 21 14 26 -10
l4 -23 2 23 c0 12 5 22 10 22 6 0 8 -10 6 -21 -3 -12 -1 -18 3 -15 4 4 7 13 7
19 0 5 6 12 14 15 9 3 11 0 6 -8 -5 -8 -4 -11 3 -6 6 4 9 13 5 22 -3 9 0 14 7
12 6 -2 19 8 28 22 9 14 12 22 7 18 -4 -4 -14 -3 -22 4 -7 6 -16 8 -20 5 -3
-4 -12 -2 -18 3 -9 7 -16 6 -25 -4z m70 -26 c0 -5 -6 -12 -12 -16 -7 -4 -10
-4 -6 1 4 4 3 14 -4 22 -8 11 -7 12 6 7 9 -3 16 -10 16 -14z"/>
<path d="M2764 4071 c5 -8 0 -14 -13 -18 -12 -3 -21 -9 -21 -15 0 -10 36 7 45
21 3 5 0 13 -6 17 -8 5 -9 3 -5 -5z"/>
<path d="M1825 4049 c-4 -6 -5 -12 -2 -15 2 -3 7 2 10 11 7 17 1 20 -8 4z"/>
<path d="M1870 4049 c0 -5 5 -7 10 -4 6 3 10 8 10 11 0 2 -4 4 -10 4 -5 0 -10
-5 -10 -11z"/>
<path d="M2783 4040 c-3 -12 -11 -19 -19 -16 -7 3 -18 -2 -24 -9 -15 -19 -31
-10 -24 13 5 14 4 14 -4 3 -13 -18 -7 -33 21 -50 20 -13 21 -13 8 2 -15 19
-17 18 27 22 20 1 44 12 58 26 l24 25 -31 2 c-24 2 -32 -2 -36 -18z m42 -1
c-4 -5 -16 -14 -28 -21 -19 -10 -20 -9 -10 4 7 8 11 17 8 19 -2 3 5 5 16 6 11
1 17 -2 14 -8z"/>
<path d="M1879 4019 c-17 -24 -24 -28 -31 -17 -8 10 -8 9 -4 -4 3 -10 1 -18
-4 -18 -5 0 -11 10 -13 23 -3 12 -4 4 -4 -17 2 -27 -3 -41 -13 -44 -12 -4 -13
-3 -2 10 10 13 10 17 -4 22 -9 4 -19 4 -22 1 -3 -3 0 -5 7 -5 6 0 11 -7 9 -16
-5 -30 19 -25 48 9 66 77 73 87 65 87 -5 0 -20 -14 -32 -31z"/>
<path d="M1847 4029 c7 -7 15 -10 18 -7 3 3 -2 9 -12 12 -14 6 -15 5 -6 -5z"/>
<path d="M1782 4003 c-7 -2 -17 -14 -23 -26 -11 -21 -11 -21 10 1 12 12 27 19
33 16 7 -4 8 -2 4 4 -4 7 -8 12 -9 11 -1 0 -8 -3 -15 -6z"/>
<path d="M1762 3944 c-7 -8 -8 -14 -3 -14 10 0 25 19 20 25 -2 1 -10 -3 -17
-11z"/>
<path d="M2632 3953 c-10 -4 -8 -9 7 -20 12 -8 19 -19 16 -24 -4 -5 2 -6 11
-2 11 4 13 8 6 11 -7 2 -12 8 -12 14 0 6 7 7 16 4 9 -3 12 -2 9 5 -4 5 -16 7
-27 3 -14 -4 -18 -2 -14 5 8 12 7 12 -12 4z"/>
<path d="M1690 3910 c-19 -16 -30 -30 -24 -30 5 0 15 5 22 12 6 6 15 8 19 3 5
-4 2 -10 -5 -12 -7 -3 -17 -14 -23 -26 -8 -15 -1 -11 22 12 23 22 30 35 21 38
-10 4 -10 8 -1 19 18 22 7 16 -31 -16z"/>
<path d="M1780 3914 c0 -8 5 -12 10 -9 6 4 8 11 5 16 -9 14 -15 11 -15 -7z"/>
<path d="M1643 3865 c0 -7 6 -11 14 -8 7 3 13 6 13 8 0 2 -6 5 -13 8 -8 3 -14
-1 -14 -8z"/>
<path d="M1715 3853 l-18 -28 27 24 c28 26 31 31 17 31 -5 0 -17 -12 -26 -27z"/>
<path d="M1619 3853 c-1 -5 -1 -11 0 -15 0 -5 -7 -8 -16 -8 -28 -1 -68 -37
-68 -62 0 -17 -5 -22 -20 -20 -15 2 -17 1 -6 -6 9 -7 25 -3 47 10 36 21 48 36
15 18 -26 -14 -30 -13 -27 7 2 9 9 19 16 21 8 3 10 0 5 -8 -6 -9 -3 -9 14 -1
25 14 28 23 4 14 -11 -4 -14 -3 -9 6 5 7 14 10 21 7 7 -2 16 -2 19 2 4 3 17 7
29 9 18 2 19 1 7 -8 -10 -7 -11 -9 -2 -7 21 5 15 23 -8 26 -11 2 -18 8 -15 13
4 5 4 9 1 9 -3 0 -7 -3 -7 -7z"/>
<path d="M2456 3851 c-4 -5 -2 -12 3 -15 5 -4 12 -2 15 3 4 5 2 12 -3 15 -5 4
-12 2 -15 -3z"/>
<path d="M2524 3834 c5 -12 1 -14 -17 -9 -16 4 -18 4 -8 -3 11 -8 9 -11 -8
-17 -13 -4 -20 -9 -18 -12 10 -9 64 26 64 41 0 9 -5 16 -10 16 -5 0 -6 -7 -3
-16z"/>
<path d="M1223 3800 c0 -25 2 -35 4 -22 2 12 2 32 0 45 -2 12 -4 2 -4 -23z"/>
<path d="M2420 3836 c0 -2 7 -7 16 -10 8 -3 12 -2 9 4 -6 10 -25 14 -25 6z"/>
<path d="M2373 3813 c-17 -14 -17 -14 1 -5 10 5 27 7 37 5 11 -3 19 -3 19 0 0
13 -41 13 -57 0z"/>
<path d="M1615 3811 c-4 -7 -8 -24 -10 -39 -3 -25 -2 -25 12 -7 7 11 16 19 18
18 9 -5 9 2 -2 21 -7 13 -12 15 -18 7z m19 -19 c3 -5 -1 -9 -9 -9 -8 0 -12 4
-9 9 3 4 7 8 9 8 2 0 6 -4 9 -8z"/>
<path d="M2343 3785 c0 -7 6 -11 14 -8 7 3 13 6 13 8 0 2 -6 5 -13 8 -8 3 -14
-1 -14 -8z"/>
<path d="M2380 3792 c0 -4 10 -9 22 -9 18 -2 20 0 8 7 -18 12 -30 13 -30 2z"/>
<path d="M2271 3762 c-19 -10 -33 -21 -32 -26 3 -14 -61 -38 -71 -28 -11 11
-88 -6 -88 -19 0 -5 -6 -6 -14 -3 -7 3 -16 -2 -20 -11 -5 -13 -1 -15 17 -9 12
4 23 11 25 15 2 5 16 7 30 4 23 -5 24 -4 7 4 -19 9 -19 10 2 10 12 1 25 -4 28
-9 4 -7 12 -7 25 0 24 13 33 13 25 0 -3 -5 11 -2 31 6 20 8 46 14 58 12 22 -3
161 60 153 69 -3 2 -17 -3 -31 -12 -14 -10 -33 -15 -41 -11 -8 3 -14 0 -12 -7
1 -7 -8 -12 -23 -11 -14 1 -27 -2 -30 -6 -3 -4 -19 -10 -36 -13 -23 -4 -31 -2
-31 9 0 23 46 38 75 25 31 -15 35 -14 20 3 -7 8 -16 12 -20 10 -3 -2 -8 0 -10
5 -1 5 -18 2 -37 -7z"/>
<path d="M1203 3720 c0 -25 2 -35 4 -22 2 12 2 32 0 45 -2 12 -4 2 -4 -23z"/>
<path d="M1452 3735 c-16 -13 -32 -22 -35 -19 -3 3 -3 -3 0 -15 4 -17 9 -19
24 -10 24 12 25 23 2 15 -10 -4 -2 7 17 23 19 17 32 30 28 31 -3 0 -20 -11
-36 -25z"/>
<path d="M2275 3740 c-13 -6 -15 -9 -5 -9 8 0 22 4 30 9 18 12 2 12 -25 0z"/>
<path d="M1546 3724 c-3 -8 -11 -12 -17 -8 -8 4 -9 3 -5 -5 6 -9 12 -9 24 1
10 7 18 13 20 14 2 1 -1 5 -6 8 -6 3 -13 -1 -16 -10z"/>
<path d="M2190 3730 c-9 -6 -10 -10 -3 -10 6 0 15 5 18 10 8 12 4 12 -15 0z"/>
<path d="M1480 3719 c0 -5 5 -7 10 -4 6 3 10 8 10 11 0 2 -4 4 -10 4 -5 0 -10
-5 -10 -11z"/>
<path d="M1495 3690 c-3 -6 1 -7 9 -4 18 7 21 14 7 14 -6 0 -13 -4 -16 -10z"/>
<path d="M2253 3690 c-35 -14 -27 -20 10 -8 17 6 34 13 36 14 8 7 -24 3 -46
-6z"/>
<path d="M1452 3674 c-8 -9 -25 -14 -40 -11 -15 2 -21 2 -14 0 25 -9 2 -20
-35 -18 -21 2 -30 1 -20 -2 9 -2 15 -8 12 -13 -3 -5 3 -7 12 -6 28 6 113 49
113 58 0 13 -14 9 -28 -8z"/>
<path d="M1318 3673 c-10 -2 -18 -8 -18 -13 0 -10 38 -1 46 11 5 9 1 10 -28 2z"/>
<path d="M1940 3660 c-29 -6 -26 -7 15 -4 31 2 45 0 36 -5 -10 -7 -6 -9 13 -8
24 2 25 3 9 15 -18 13 -20 13 -73 2z"/>
<path d="M2130 3650 c20 -13 33 -13 25 0 -3 6 -14 10 -23 10 -15 0 -15 -2 -2
-10z"/>
<path d="M1797 3643 c-22 -6 -19 -47 3 -49 8 0 10 1 3 3 -15 5 -5 33 12 33 8
0 17 5 20 10 6 10 -6 11 -38 3z"/>
<path d="M1858 3643 c6 -2 18 -2 25 0 6 3 1 5 -13 5 -14 0 -19 -2 -12 -5z"/>
<path d="M1911 3631 c-12 -8 -9 -11 12 -17 16 -3 31 -4 34 0 4 3 -5 6 -18 7
-22 0 -23 1 -4 9 13 6 15 9 5 9 -8 0 -22 -3 -29 -8z"/>
<path d="M1978 3623 c6 -2 18 -2 25 0 6 3 1 5 -13 5 -14 0 -19 -2 -12 -5z"/>
<path d="M2037 3624 c-3 -4 -21 -10 -39 -14 -27 -7 -29 -8 -8 -9 27 0 95 27
69 28 -9 1 -18 -2 -22 -5z"/>
<path d="M1280 3616 c0 -9 40 -13 46 -5 3 5 -6 9 -20 9 -14 0 -26 -2 -26 -4z"/>
<path d="M1834 3605 c9 -10 31 -14 63 -13 l48 1 -45 4 c-25 3 -49 8 -54 14 -6
5 -14 9 -19 9 -5 0 -2 -7 7 -15z"/>
<path d="M1245 3590 c-3 -5 1 -10 9 -10 9 0 16 5 16 10 0 6 -4 10 -9 10 -6 0
-13 -4 -16 -10z"/>
<path d="M1791 6057 c-46 -15 -105 -76 -119 -125 -38 -127 12 -251 120 -296
55 -23 97 -19 154 14 68 39 104 106 104 194 0 159 -121 257 -259 213z"/>
<path d="M2798 6060 c-106 -32 -163 -165 -127 -295 14 -51 84 -120 140 -136
112 -34 234 61 247 192 15 159 -118 282 -260 239z"/>
<path d="M2176 5552 c-3 -5 1 -9 9 -9 8 0 12 4 9 9 -3 4 -7 8 -9 8 -2 0 -6 -4
-9 -8z"/>
<path d="M2500 5530 c-20 -16 -21 -19 -5 -13 18 6 18 5 6 -10 -7 -9 -18 -14
-23 -11 -6 4 -5 -3 1 -14 15 -28 28 -35 37 -21 4 7 3 9 -4 5 -13 -8 -26 10
-17 24 5 8 11 7 21 -1 8 -6 14 -10 15 -8 5 24 8 37 14 52 10 23 -13 22 -45 -3z
m31 -9 c-6 -10 -7 -22 -3 -26 4 -5 2 -5 -5 -2 -13 8 -6 47 9 47 5 0 4 -8 -1
-19z"/>
<path d="M2204 5526 c-5 -12 -10 -13 -26 -5 -20 11 -20 11 -2 -14 20 -27 29
-25 37 8 3 12 5 8 4 -10 -1 -33 9 -55 24 -55 6 0 4 6 -4 14 -8 9 -12 26 -10
39 5 28 -14 47 -23 23z"/>
<path d="M2263 5448 c0 -13 1 -17 4 -10 7 17 23 15 23 -3 0 -8 10 -19 21 -26
19 -10 18 -7 -6 25 -32 42 -40 45 -42 14z"/>
<path d="M2236 5432 c-2 -4 2 -16 10 -27 12 -16 14 -17 14 -2 0 9 -5 17 -11
17 -5 0 -7 5 -4 10 3 6 4 10 1 10 -3 0 -7 -3 -10 -8z"/>
<path d="M2273 5385 c-3 -9 -3 -18 -1 -21 3 -3 8 4 11 16 6 23 -1 27 -10 5z"/>
<path d="M2410 5381 c0 -7 -5 -9 -12 -5 -7 5 -8 3 -3 -5 5 -9 10 -10 18 -2 6
6 8 14 4 18 -4 3 -7 1 -7 -6z"/>
<path d="M2421 5353 c-7 -8 -11 -16 -8 -19 2 -2 10 2 17 11 17 20 9 27 -9 8z"/>
<path d="M2355 5337 c-10 -8 -14 -17 -9 -20 6 -3 15 3 22 14 14 23 12 24 -13
6z"/>
<path d="M2370 5290 c-16 -22 -17 -28 -6 -24 9 3 16 11 16 16 0 6 8 17 18 24
9 7 12 14 5 14 -6 0 -21 -13 -33 -30z"/>
<path d="M8350 5335 c0 -128 1 -135 24 -158 24 -24 24 -24 22 -2 0 13 -7 22
-16 21 -13 -1 -15 21 -17 130 l-1 131 52 2 53 1 -1 -430 -1 -429 -25 -4 c-20
-3 -19 -4 8 -6 l32 -1 0 440 0 440 -65 0 -65 0 0 -135z"/>
<path d="M8438 5388 c5 -107 9 -117 11 -25 0 48 -2 87 -6 87 -5 0 -7 -28 -5
-62z"/>
<path d="M8413 5320 c0 -25 2 -35 4 -22 2 12 2 32 0 45 -2 12 -4 2 -4 -23z"/>
<path d="M8382 5255 c0 -16 2 -22 5 -12 2 9 2 23 0 30 -3 6 -5 -1 -5 -18z"/>
<path d="M8101 5216 c3 -3 34 -8 69 -11 35 -3 61 -3 58 0 -3 4 -34 8 -69 11
-35 3 -61 3 -58 0z"/>
<path d="M8026 5195 c-8 -9 -21 -14 -28 -13 -8 2 -12 -6 -11 -22 3 -23 2 -24
-11 -7 -13 16 -16 15 -45 -18 -40 -46 -64 -92 -51 -100 6 -3 10 1 10 9 0 8 5
18 12 22 8 5 9 2 5 -9 -3 -9 -2 -19 3 -22 5 -3 7 9 5 26 -3 24 0 32 15 36 12
3 19 13 17 25 -1 12 4 23 12 26 9 3 11 0 6 -9 -5 -8 -5 -11 -1 -7 4 3 16 -1
27 -10 21 -18 62 -26 53 -10 -3 5 -11 7 -18 5 -6 -3 -16 1 -23 8 -9 10 -7 18
9 37 14 15 22 19 25 11 6 -15 33 -17 33 -3 0 6 -7 10 -15 10 -8 0 -15 5 -15
11 0 6 9 9 20 6 11 -3 22 -2 24 2 9 14 -43 10 -58 -4z"/>
<path d="M8243 5185 c0 -8 4 -12 8 -10 3 3 13 -2 20 -11 11 -14 10 -15 -7 -12
-12 2 -18 -2 -17 -12 2 -12 -9 -14 -65 -12 -49 3 -75 -1 -97 -13 -25 -14 -26
-15 -5 -9 14 4 59 9 100 11 41 1 86 5 100 7 14 2 30 4 35 5 6 1 4 5 -3 10 -8
4 -13 12 -13 17 1 5 -3 9 -7 9 -5 0 -16 8 -26 18 -21 21 -23 21 -23 2z m54
-40 c0 -8 -4 -15 -9 -15 -10 0 -11 14 -1 23 9 10 10 9 10 -8z"/>
<path d="M8130 5186 c0 -9 40 -13 46 -5 3 5 -6 9 -20 9 -14 0 -26 -2 -26 -4z"/>
<path d="M8350 5171 c0 -5 6 -14 14 -20 12 -10 13 -8 9 8 -5 21 -23 30 -23 12z"/>
<path d="M8430 5092 c0 -39 -20 -53 -21 -15 -2 25 -2 25 -8 -7 -4 -19 -11 -34
-17 -33 -6 1 -10 -12 -9 -30 4 -48 -9 -58 -15 -13 -3 22 -11 41 -17 44 -7 2
-13 -1 -13 -8 0 -6 4 -9 9 -5 6 3 10 -3 10 -12 2 -81 15 -183 22 -171 5 7 9
29 10 48 0 19 4 44 9 55 7 16 9 10 11 -25 l2 -45 4 38 c3 23 -1 45 -9 54 -10
13 -10 17 0 20 6 3 12 16 12 31 0 14 2 23 4 21 7 -7 14 -60 15 -113 1 -27 4
-47 7 -44 8 8 8 227 0 235 -3 3 -6 -8 -6 -25z m-39 -89 c-12 -20 -14 -14 -5
12 4 9 9 14 11 11 3 -2 0 -13 -6 -23z m-8 -48 c-3 -9 -8 -14 -10 -11 -3 3 -2
9 2 15 9 16 15 13 8 -4z"/>
<path d="M8099 5097 c-19 -7 -41 -12 -47 -11 -7 1 -8 0 -2 -3 6 -3 0 -17 -15
-34 -72 -86 -52 -277 35 -339 59 -42 156 -39 210 7 45 37 61 76 67 159 5 65 3
79 -20 126 -16 32 -41 63 -62 77 -43 29 -115 37 -166 18z"/>
<path d="M8285 5080 c3 -5 8 -10 11 -10 2 0 4 5 4 10 0 6 -5 10 -11 10 -5 0
-7 -4 -4 -10z"/>
<path d="M8024 5071 c5 -8 2 -11 -9 -9 -10 2 -19 -3 -21 -10 -1 -7 0 -8 2 -3
3 6 11 8 19 5 17 -7 29 12 14 22 -8 5 -9 3 -5 -5z"/>
<path d="M7982 5010 c-18 -29 -15 -48 4 -22 8 12 14 27 12 32 -2 6 -9 1 -16
-10z"/>
<path d="M7866 4995 c4 -20 2 -26 -4 -17 -19 27 -21 -145 -2 -202 10 -32 30
-42 30 -15 0 6 -4 7 -10 4 -6 -4 -7 1 -3 11 5 14 7 14 15 1 4 -8 9 -34 10 -56
1 -31 9 -47 35 -73 32 -31 33 -31 20 -5 -6 15 -17 27 -23 27 -22 0 -9 35 19
49 32 16 33 22 7 39 -19 12 -20 11 -14 -14 6 -22 4 -26 -9 -21 -9 3 -18 1 -21
-6 -3 -7 -5 5 -3 25 2 20 -1 34 -5 32 -4 -3 -10 5 -12 18 -3 13 -7 32 -9 43
-3 12 -5 7 -6 -12 0 -18 -5 -33 -10 -33 -11 0 -22 101 -15 139 7 34 20 41 27
14 2 -10 2 -2 0 17 -3 19 -9 42 -14 50 -6 10 -7 6 -3 -15z"/>
<path d="M7917 4973 c5 -11 3 -14 -6 -8 -10 6 -11 3 -2 -14 7 -11 18 -21 25
-21 18 0 29 41 15 55 -7 7 -10 5 -9 -5 4 -27 0 -41 -9 -36 -5 3 -7 15 -4 26 3
11 0 20 -6 20 -6 0 -8 -7 -4 -17z"/>
<path d="M7963 4931 c-15 -41 -17 -62 -3 -41 7 11 9 -1 5 -40 -4 -44 -3 -50 5
-30 6 13 10 51 8 85 l-3 60 -12 -34z"/>
<path d="M7860 4898 c0 -7 5 -20 10 -28 8 -12 10 -11 10 7 0 12 -4 25 -10 28
-5 3 -10 0 -10 -7z"/>
<path d="M7921 4900 c0 -8 4 -22 9 -30 12 -18 12 -2 0 25 -6 13 -9 15 -9 5z"/>
<path d="M7900 4845 c0 -19 4 -35 8 -35 4 0 6 16 4 35 -2 19 -6 35 -8 35 -2 0
-4 -16 -4 -35z"/>
<path d="M7931 4845 c1 -19 18 -51 18 -35 0 8 -4 22 -9 30 -5 8 -9 11 -9 5z"/>
<path d="M7988 4767 c12 -13 19 -27 15 -32 -5 -4 -2 -5 5 -1 15 9 0 41 -25 50
-14 6 -13 2 5 -17z"/>
<path d="M8327 4753 c-4 -3 -7 -11 -7 -17 0 -6 5 -5 12 2 6 6 9 14 7 17 -3 3
-9 2 -12 -2z"/>
<path d="M8026 4717 c7 -19 42 -42 52 -33 3 3 0 6 -6 6 -6 0 -21 10 -32 23
-16 17 -20 18 -14 4z"/>
<path d="M7990 4710 c-13 -8 -12 -10 3 -10 9 0 17 5 17 10 0 12 -1 12 -20 0z"/>
<path d="M7960 4679 c0 -14 27 -16 49 -5 21 12 21 13 -13 12 -20 -1 -36 -4
-36 -7z"/>
<path d="M8040 4670 c0 -12 39 -19 46 -9 3 5 13 9 22 9 13 0 13 -2 -4 -15 -17
-13 -17 -14 -1 -15 9 0 17 5 17 11 0 7 11 9 26 6 16 -3 22 -1 16 5 -11 11
-122 19 -122 8z"/>
<path d="M8360 4660 c0 -5 5 -10 11 -10 5 0 7 5 4 10 -3 6 -8 10 -11 10 -2 0
-4 -4 -4 -10z"/>
<path d="M8007 4653 c-3 -5 9 -9 26 -10 26 -1 28 0 12 7 -26 11 -33 12 -38 3z"/>
<path d="M8351 4624 c0 -11 3 -14 6 -6 3 7 2 16 -1 19 -3 4 -6 -2 -5 -13z"/>
<path d="M8025 4620 c-13 -5 -14 -9 -5 -9 8 0 24 4 35 9 13 5 14 9 5 9 -8 0
-24 -4 -35 -9z"/>
<path d="M8140 4620 l-55 -7 50 -1 c28 -1 57 3 65 8 8 5 11 9 5 8 -5 -1 -35
-4 -65 -8z"/>
<path d="M8257 4605 c-26 -13 -57 -13 -167 0 -26 3 -31 2 -20 -6 11 -7 6 -9
-20 -4 -30 5 -32 4 -16 -6 11 -7 49 -13 85 -14 64 -2 64 -2 16 5 -45 7 -42 7
24 5 48 -1 84 3 102 12 16 8 29 16 29 19 0 6 -2 5 -33 -11z"/>
<path d="M4211 5340 c-191 -39 -295 -272 -207 -465 55 -120 146 -180 276 -179
92 0 149 24 210 90 85 92 110 214 71 342 -47 154 -194 243 -350 212z"/>
<path d="M6521 5456 c2 -2 18 -6 34 -10 22 -5 26 -4 15 4 -14 9 -59 15 -49 6z"/>
<path d="M6600 5456 c0 -2 11 -6 25 -8 13 -3 22 -1 19 3 -5 9 -44 13 -44 5z"/>
<path d="M6670 5456 c0 -10 28 -13 41 -5 10 6 7 9 -13 9 -16 0 -28 -2 -28 -4z"/>
<path d="M6725 5440 c-3 -6 1 -7 9 -4 18 7 21 14 7 14 -6 0 -13 -4 -16 -10z"/>
<path d="M6427 5424 c-16 -9 -26 -18 -24 -21 3 -3 16 2 29 11 25 18 42 21 33
7 -3 -5 -1 -12 4 -15 5 -4 8 2 7 11 -4 23 -16 25 -49 7z"/>
<path d="M6760 5432 c0 -5 19 -16 42 -25 40 -16 41 -18 23 -31 -19 -14 -19
-14 5 -15 54 -1 57 -3 55 -39 -1 -25 -6 -36 -19 -38 -22 -3 -34 -14 -16 -14
10 0 10 -3 0 -16 -11 -12 -10 -18 3 -32 11 -10 17 -12 17 -4 0 7 -5 12 -11 12
-5 0 -8 4 -5 9 3 5 21 5 41 1 26 -6 35 -5 32 3 -2 7 -16 11 -31 9 -14 -1 -26
2 -26 8 0 6 5 8 12 4 6 -4 8 -3 5 3 -4 6 0 16 8 23 13 11 14 10 9 -4 -3 -9 -1
-16 5 -16 16 0 13 25 -4 40 -8 7 -15 18 -15 24 0 6 16 -6 35 -26 20 -21 38
-38 42 -38 4 0 -4 11 -17 25 -13 14 -19 25 -14 25 5 1 -6 14 -25 30 -18 15
-40 26 -48 23 -8 -3 -13 0 -11 8 2 7 -7 18 -19 24 -13 5 -23 13 -23 18 0 4 -4
6 -9 2 -5 -3 -12 -1 -16 5 -8 12 -25 13 -25 2z m161 -99 c13 -16 12 -17 -3 -4
-10 7 -18 15 -18 17 0 8 8 3 21 -13z"/>
<path d="M6357 5385 c-15 -14 -24 -25 -19 -25 5 0 15 7 22 15 7 8 17 12 24 8
11 -8 15 -9 51 -16 11 -2 14 -2 8 0 -7 3 -13 9 -13 15 0 5 7 8 15 4 8 -3 15
-1 15 5 0 7 -10 9 -27 4 -45 -11 -48 -11 -45 3 3 16 2 16 -31 -13z"/>
<path d="M6673 5400 c-13 -5 -23 -14 -23 -20 0 -6 5 -8 10 -5 17 10 68 -5 74
-22 5 -11 2 -14 -11 -9 -13 4 -11 0 5 -14 23 -19 25 -19 47 -2 20 15 21 18 7
23 -10 4 -20 5 -24 2 -5 -2 -8 0 -8 6 0 5 -9 13 -20 16 -11 3 -20 13 -20 21 0
16 -6 17 -37 4z m92 -69 c-3 -6 -11 -8 -17 -5 -6 4 -5 9 3 15 16 10 23 4 14
-10z"/>
<path d="M6540 5380 c0 -5 5 -10 11 -10 5 0 7 5 4 10 -3 6 -8 10 -11 10 -2 0
-4 -4 -4 -10z"/>
<path d="M6770 5380 c0 -14 28 -19 33 -6 3 6 -4 13 -14 13 -10 1 -19 -2 -19
-7z"/>
<path d="M6376 5359 c3 -6 -3 -13 -15 -16 -11 -3 -27 -16 -36 -30 -20 -30 -31
-24 -14 9 l12 23 -22 -20 c-32 -28 -44 -52 -26 -52 8 0 11 5 8 10 -4 6 0 8 10
4 9 -3 19 -2 22 3 4 6 16 10 29 10 15 0 27 9 34 26 7 14 17 22 22 19 6 -3 10
0 10 7 0 8 -9 14 -20 15 -12 1 -18 -3 -14 -8z"/>
<path d="M6470 5347 c0 -5 6 -5 13 -1 8 5 8 2 -2 -9 -11 -15 -11 -17 2 -17 8
0 17 5 19 10 2 6 30 13 63 16 87 7 79 13 -14 11 -44 -1 -81 -6 -81 -10z"/>
<path d="M6650 5350 c8 -5 22 -9 30 -9 10 0 8 3 -5 9 -27 12 -43 12 -25 0z"/>
<path d="M6415 5330 c-13 -15 -15 -23 -7 -33 9 -11 6 -19 -13 -37 -25 -23 -37
-16 -13 8 9 9 9 12 0 12 -6 0 -16 -10 -23 -21 -8 -15 -13 -18 -19 -10 -5 9 -9
5 -13 -11 -10 -34 -6 -57 4 -28 7 20 8 16 5 -17 -5 -53 7 -64 21 -18 8 23 7
37 0 44 -6 6 -7 14 -2 18 4 5 10 2 12 -5 3 -8 15 -1 33 20 16 18 26 37 23 42
-4 5 0 7 9 4 18 -7 46 8 35 19 -5 4 -11 3 -15 -2 -10 -14 -44 -15 -39 -1 2 6
11 10 20 10 9 -1 14 2 11 7 -3 5 3 6 12 2 12 -4 15 -3 10 5 -11 18 -31 15 -51
-8z"/>
<path d="M6776 5311 c-4 -5 -2 -12 3 -15 5 -4 12 -2 15 3 4 5 2 12 -3 15 -5 4
-12 2 -15 -3z"/>
<path d="M6237 5223 c-27 -64 -37 -115 -37 -198 0 -77 19 -188 35 -203 4 -4 4
4 -1 18 -5 14 -8 52 -7 85 0 40 -2 52 -7 35 -6 -23 -7 26 0 130 l2 35 8 -30 8
-30 1 37 c0 21 -4 39 -11 41 -10 4 -10 8 -1 14 6 5 11 17 10 28 -2 15 4 20 23
20 40 0 52 12 33 35 -9 11 -19 17 -21 15 -3 -3 1 -11 8 -20 7 -9 10 -19 6 -22
-4 -4 -11 -1 -15 6 -7 11 -10 11 -15 0 -3 -8 -4 -2 -1 14 7 37 1 34 -18 -10z"/>
<path d="M6958 5253 c7 -3 16 -2 19 1 4 3 -2 6 -13 5 -11 0 -14 -3 -6 -6z"/>
<path d="M6888 5223 c7 -3 16 -2 19 1 4 3 -2 6 -13 5 -11 0 -14 -3 -6 -6z"/>
<path d="M6332 5110 c0 -14 2 -19 5 -12 2 6 2 18 0 25 -3 6 -5 1 -5 -13z"/>
<path d="M6321 5019 c1 -35 5 -75 9 -89 4 -14 6 12 3 60 -7 102 -13 118 -12
29z"/>
<path d="M6284 5059 c-3 -6 -1 -16 5 -22 8 -8 11 -5 11 11 0 24 -5 28 -16 11z"/>
<path d="M6300 4906 c0 -13 7 -26 15 -30 16 -6 18 -2 9 32 -8 29 -24 28 -24
-2z"/>
<path d="M6240 4870 c0 -5 5 -10 10 -10 6 0 10 5 10 10 0 6 -4 10 -10 10 -5 0
-10 -4 -10 -10z"/>
<path d="M6267 4847 c-3 -8 -1 -20 4 -28 5 -9 9 -9 9 -2 0 6 3 18 6 27 3 9 2
16 -4 16 -5 0 -12 -6 -15 -13z"/>
<path d="M6830 4793 c-33 -49 -45 -73 -26 -49 9 11 16 14 16 7 0 -7 4 -10 10
-6 5 3 7 12 4 19 -5 14 20 46 37 46 5 0 9 5 9 10 0 22 -26 8 -50 -27z"/>
<path d="M6910 4810 c12 -7 12 -16 4 -47 -6 -21 -15 -46 -19 -57 -13 -31 26
-15 46 19 10 17 23 37 28 47 8 12 7 18 -5 22 -11 4 -15 2 -11 -8 3 -8 0 -20
-8 -26 -7 -6 -16 -22 -19 -35 -4 -14 -11 -25 -17 -25 -8 0 -8 4 -2 13 6 6 16
29 23 51 12 39 5 56 -25 56 -5 0 -3 -4 5 -10z"/>
<path d="M6873 4786 c1 -10 -4 -21 -12 -24 -9 -3 -11 0 -6 9 5 8 4 11 0 6 -11
-9 -14 -48 -4 -42 4 3 9 -2 13 -10 3 -10 -1 -15 -13 -15 -10 0 -24 -7 -31 -15
-7 -9 -19 -14 -27 -11 -7 3 -21 -3 -30 -14 -10 -11 -21 -20 -25 -20 -16 0 -8
21 17 46 24 24 30 34 20 34 -8 0 -55 -51 -55 -60 0 -6 -5 -10 -10 -10 -7 0 -7
6 -1 19 9 16 8 18 -9 14 -11 -3 -20 -8 -20 -12 0 -3 -28 -6 -62 -5 l-63 1 60
-5 c46 -3 55 -6 40 -13 -16 -7 -14 -8 10 -4 17 3 37 1 45 -5 8 -5 11 -10 5
-10 -5 0 -3 -5 5 -10 12 -8 12 -10 -5 -10 -14 -1 -10 -5 14 -15 42 -19 50 -19
25 0 -22 17 -15 19 20 5 15 -5 26 -6 26 -1 0 5 3 16 6 25 4 10 1 16 -10 16
-10 0 -13 -6 -10 -15 4 -8 2 -15 -4 -15 -15 0 -21 22 -11 42 8 15 12 15 49 1
38 -15 42 -15 57 0 15 15 14 16 -7 10 -17 -4 -21 -2 -18 8 3 8 11 13 17 11 8
-2 11 8 7 29 -4 24 0 36 17 50 12 9 18 21 14 25 -4 5 -12 2 -16 -5 -7 -11 -10
-11 -14 0 -4 9 -6 6 -4 -5z"/>
<path d="M6453 4714 c-20 -21 -15 -34 13 -34 14 0 23 4 20 9 -4 5 0 12 6 14 8
4 7 6 -4 6 -9 1 -18 5 -20 10 -1 5 -9 3 -15 -5z"/>
<path d="M6790 4709 c0 -5 5 -7 10 -4 6 3 10 8 10 11 0 2 -4 4 -10 4 -5 0 -10
-5 -10 -11z"/>
<path d="M6515 4690 c3 -5 11 -10 16 -10 6 0 7 5 4 10 -3 6 -11 10 -16 10 -6
0 -7 -4 -4 -10z"/>
<path d="M6491 4671 c-10 -7 -10 -10 -1 -16 6 -4 16 -3 22 3 13 13 -4 23 -21
13z"/>
<path d="M6563 4653 c9 -2 25 -2 35 0 9 3 1 5 -18 5 -19 0 -27 -2 -17 -5z"/>
<path d="M6515 4641 c-6 -5 -19 -11 -30 -14 -13 -3 -10 -5 11 -6 20 -1 34 5
38 14 6 17 -5 20 -19 6z"/>
<path d="M6820 4630 c-8 -5 -12 -11 -10 -14 3 -2 14 2 24 10 22 15 10 19 -14
4z"/>
<path d="M6550 4620 c-9 -6 -10 -10 -3 -10 6 0 15 5 18 10 8 12 4 12 -15 0z"/>
<path d="M6608 4623 c18 -2 45 -2 60 0 15 2 0 4 -33 4 -33 0 -45 -2 -27 -4z"/>
<path d="M6648 4603 c7 -3 16 -2 19 1 4 3 -2 6 -13 5 -11 0 -14 -3 -6 -6z"/>
<path d="M6500 4590 c-62 -16 132 -26 205 -10 27 5 8 6 -57 3 -58 -4 -103 -2
-110 4 -7 5 -24 7 -38 3z"/>
<path d="M7408 5211 c40 -3 76 -11 80 -17 4 -6 15 -13 25 -17 10 -4 16 -10 14
-14 -3 -5 8 -8 25 -9 20 -1 25 2 16 7 -10 7 -10 9 2 9 12 1 11 3 -2 11 -38 22
-116 39 -173 37 l-60 -1 73 -6z m142 -31 c13 -8 13 -10 -2 -10 -9 0 -20 5 -23
10 -8 13 5 13 25 0z"/>
<path d="M7237 5179 c-9 -6 -14 -15 -11 -21 5 -7 2 -9 -9 -5 -9 3 -18 0 -21
-9 -3 -8 -2 -14 3 -14 11 0 9 -33 -3 -45 -13 -12 -26 -13 -43 -2 -6 4 -14 3
-18 -3 -6 -10 1 -14 18 -11 5 1 6 -3 2 -9 -4 -6 -14 -9 -22 -8 -9 2 -17 -3
-19 -10 -1 -7 0 -8 2 -3 3 6 11 8 18 5 8 -3 20 1 27 8 8 7 21 14 29 16 8 2 20
9 26 17 8 11 13 12 22 3 9 -9 12 -9 12 -1 0 7 -9 14 -20 18 -20 6 -23 24 -6
37 6 4 18 2 27 -3 24 -13 28 -12 25 8 -2 9 -8 19 -14 21 -7 2 -10 8 -6 13 7
11 4 11 -19 -2z m23 -19 c8 -5 11 -10 5 -10 -5 0 -17 5 -25 10 -8 5 -10 10 -5
10 6 0 17 -5 25 -10z"/>
<path d="M7280 5176 c7 -7 13 -7 20 0 6 6 3 10 -10 10 -13 0 -16 -4 -10 -10z"/>
<path d="M7340 5154 c0 -10 31 -36 37 -31 3 3 -2 13 -10 22 -16 15 -27 19 -27
9z"/>
<path d="M7425 5130 c-4 -6 5 -10 19 -10 14 0 26 5 26 10 0 6 -9 10 -19 10
-11 0 -23 -4 -26 -10z"/>
<path d="M7525 5115 c0 -22 45 -78 45 -56 0 5 -5 13 -10 16 -6 4 -8 11 -5 16
3 5 -1 6 -9 3 -11 -4 -13 0 -9 14 2 11 1 22 -4 25 -5 3 -9 -5 -8 -18z"/>
<path d="M7555 5132 c16 -11 33 -68 25 -83 -4 -8 -1 -25 6 -39 13 -24 14 -24
14 -3 0 12 5 23 12 25 9 3 9 6 0 12 -7 4 -12 2 -12 -3 0 -6 -5 -11 -10 -11 -7
0 -7 6 -1 19 6 10 7 21 3 25 -3 4 0 11 8 16 8 5 11 12 7 17 -5 4 -13 1 -18 -7
-9 -12 -10 -10 -6 7 3 13 -1 24 -10 27 -20 8 -30 7 -18 -2z"/>
<path d="M7161 5116 c-7 -8 -8 -17 -3 -20 6 -3 15 1 21 8 7 8 8 17 3 20 -6 3
-15 -1 -21 -8z"/>
<path d="M7240 5125 c0 -13 37 -23 51 -13 11 8 11 9 -3 4 -10 -3 -20 -1 -23 4
-6 10 -25 14 -25 5z"/>
<path d="M7335 5098 c-66 -36 -115 -121 -115 -198 0 -47 30 -130 60 -164 16
-18 28 -35 25 -37 -4 -5 -1 -6 90 -14 47 -5 68 -2 94 12 146 77 142 338 -6
399 -39 17 -120 18 -148 2z"/>
<path d="M7255 5070 c-14 -16 -21 -18 -28 -8 -5 8 -6 3 -3 -14 4 -16 2 -28 -4
-28 -5 0 -10 9 -10 21 0 11 -4 17 -10 14 -6 -4 -4 -18 6 -37 l16 -31 17 35 c9
19 22 42 30 52 19 23 8 20 -14 -4z"/>
<path d="M7660 5080 c0 -5 7 -10 15 -10 8 0 15 -5 15 -12 0 -6 3 -8 6 -5 8 8
-14 37 -27 37 -5 0 -9 -4 -9 -10z"/>
<path d="M7620 5070 c0 -6 7 -10 15 -10 8 0 15 2 15 4 0 2 -7 6 -15 10 -8 3
-15 1 -15 -4z"/>
<path d="M7687 5023 c3 -7 6 -13 8 -13 2 0 5 6 8 13 3 8 -1 14 -8 14 -7 0 -11
-6 -8 -14z"/>
<path d="M7096 4985 c-17 -94 -18 -101 -5 -82 6 11 11 35 11 55 0 32 2 34 9
15 10 -28 29 -30 29 -3 0 11 -6 20 -14 20 -8 0 -16 8 -19 18 -2 9 -7 -1 -11
-23z"/>
<path d="M7200 4980 c6 -11 13 -20 16 -20 2 0 0 9 -6 20 -6 11 -13 20 -16 20
-2 0 0 -9 6 -20z"/>
<path d="M7715 4980 c-3 -5 -1 -10 4 -10 6 0 11 5 11 10 0 6 -2 10 -4 10 -3 0
-8 -4 -11 -10z"/>
<path d="M7608 4910 c3 -37 -2 -78 -12 -107 -9 -25 -14 -49 -11 -51 3 -3 5 0
5 6 0 7 6 12 14 12 19 0 32 20 18 29 -8 5 -9 18 -1 46 8 28 13 35 20 24 5 -8
9 -9 9 -3 0 6 -7 17 -15 24 -8 7 -15 25 -15 41 0 32 16 39 24 12 4 -14 4 -14
3 2 -1 11 -11 21 -22 23 -18 3 -20 -2 -17 -58z"/>
<path d="M7662 4935 c0 -16 2 -22 5 -12 2 9 2 23 0 30 -3 6 -5 -1 -5 -18z"/>
<path d="M7681 4944 c0 -11 3 -14 6 -6 3 7 2 16 -1 19 -3 4 -6 -2 -5 -13z"/>
<path d="M7702 4935 c0 -16 2 -22 5 -12 2 9 2 23 0 30 -3 6 -5 -1 -5 -18z"/>
<path d="M7727 4940 c-3 -8 -6 -22 -5 -30 1 -8 0 -37 -2 -65 l-3 -50 -7 45 -7
45 -2 -45 c-1 -33 -4 -41 -11 -30 -9 13 -10 13 -10 0 0 -8 5 -22 10 -30 8 -13
10 -12 10 4 0 16 2 16 16 6 8 -8 14 -9 13 -4 -1 5 1 29 5 54 9 52 4 124 -7
100z"/>
<path d="M7202 4890 c0 -25 3 -56 7 -70 5 -16 2 -34 -8 -50 -15 -24 -15 -24 3
-10 17 14 18 13 12 -6 -4 -14 -1 -26 11 -35 14 -12 16 -12 8 0 -6 11 -3 13 16
8 l24 -6 -21 17 c-20 16 -37 75 -47 167 -3 18 -4 12 -5 -15z"/>
<path d="M7083 4866 c4 -10 7 -24 7 -32 0 -9 4 -13 9 -10 11 7 3 44 -12 53 -7
4 -8 0 -4 -11z"/>
<path d="M7671 4864 c0 -11 3 -14 6 -6 3 7 2 16 -1 19 -3 4 -6 -2 -5 -13z"/>
<path d="M7096 4793 c3 -11 16 -19 31 -20 14 0 29 -7 34 -14 4 -7 11 -10 15
-6 10 10 -16 36 -41 39 -11 2 -25 7 -32 11 -7 5 -10 1 -7 -10z"/>
<path d="M7643 4750 c-6 -14 -9 -27 -8 -30 2 -3 -3 -11 -11 -18 -11 -10 -15
-9 -23 7 -6 10 -8 21 -5 23 2 3 -5 5 -17 4 -12 0 -24 -8 -26 -16 -4 -13 -3
-13 6 0 7 10 13 12 21 4 7 -7 4 -17 -10 -32 -11 -11 -20 -28 -20 -37 0 -12 -6
-15 -20 -10 -16 5 -19 2 -17 -12 1 -10 6 -23 10 -30 5 -8 -9 -14 -45 -18 -77
-10 -121 -4 -124 18 -2 13 5 17 29 18 18 0 26 3 19 6 -7 3 -30 2 -50 -2 -31
-6 -34 -9 -17 -15 11 -5 15 -9 8 -9 -6 -1 -19 -4 -29 -8 -11 -4 -15 -3 -11 4
5 7 -1 9 -15 6 -22 -4 -22 -4 2 12 14 9 17 14 8 11 -9 -3 -31 -1 -47 4 -47 13
-37 -5 17 -32 40 -19 62 -23 149 -23 89 0 105 3 132 23 16 12 36 22 42 22 7 0
10 2 7 5 -9 9 -58 -6 -52 -16 3 -5 1 -9 -5 -9 -25 0 -18 19 10 29 25 8 29 14
21 24 -9 10 -7 17 8 29 20 18 36 12 20 -7 -7 -8 -5 -12 5 -12 8 0 12 4 9 9 -6
10 10 11 19 1 4 -3 -1 -16 -10 -27 -18 -21 -18 -21 4 -2 13 10 20 23 17 27 -3
5 2 9 10 9 9 0 16 5 16 10 0 14 -13 13 -29 -2 -11 -11 -11 -9 -2 10 6 12 8 22
4 22 -4 0 -2 4 5 9 8 5 12 17 10 27 -4 17 -6 16 -15 -6z"/>
<path d="M7690 4739 c0 -5 5 -7 10 -4 6 3 10 8 10 11 0 2 -4 4 -10 4 -5 0 -10
-5 -10 -11z"/>
<path d="M7509 4693 c-1 -5 -1 -12 0 -17 1 -5 -5 -6 -13 -3 -9 4 -31 0 -50 -8
-32 -13 -40 -13 -76 1 -32 13 -43 14 -55 4 -8 -6 -19 -9 -24 -5 -7 3 -8 0 -5
-10 5 -12 9 -13 20 -4 11 9 14 8 14 -5 0 -9 4 -16 9 -16 6 0 8 9 6 21 -3 15 0
19 11 15 9 -3 19 -6 22 -6 4 0 1 -4 -7 -9 -9 -6 5 -8 38 -5 32 2 49 0 46 -6
-8 -12 5 -13 24 -1 7 5 10 14 6 21 -5 9 -2 10 12 6 13 -4 26 1 38 14 16 18 16
20 2 20 -10 0 -18 -3 -18 -7z"/>
<path d="M7478 4623 c7 -3 16 -2 19 1 4 3 -2 6 -13 5 -11 0 -14 -3 -6 -6z"/>
<path d="M7455 4600 c-19 -8 -19 -9 2 -9 12 -1 25 4 28 9 7 12 -2 12 -30 0z"/>
<path d="M8900 5210 c42 -6 43 -6 15 -12 l-30 -5 32 -2 c17 0 34 3 37 8 3 5
16 7 29 4 18 -4 19 -3 7 6 -8 6 -42 10 -75 9 -60 -1 -60 -1 -15 -8z"/>
<path d="M8808 5203 c-10 -2 -18 -9 -18 -15 0 -6 -3 -8 -6 -5 -11 10 -45 -13
-38 -25 5 -8 1 -9 -10 -5 -9 4 -14 3 -11 -2 3 -5 -3 -12 -14 -16 -21 -6 -77
-82 -68 -91 3 -3 11 5 17 18 16 31 51 68 63 68 6 0 1 -10 -10 -22 -11 -13 -23
-30 -27 -38 -4 -8 5 -1 19 15 17 18 25 23 21 12 -3 -11 -2 -16 4 -12 6 3 10 1
10 -4 0 -6 5 -11 11 -11 8 0 8 4 0 14 -17 20 -23 58 -8 53 7 -3 11 -9 10 -15
-2 -6 3 -22 11 -36 l13 -26 19 22 c16 18 17 21 2 15 -9 -3 -22 1 -30 10 -11
14 -11 16 4 11 10 -4 19 -1 22 8 5 12 1 14 -17 10 -12 -3 -16 -3 -9 0 6 3 10
10 7 14 -3 5 11 20 32 34 37 25 37 29 1 19z m-33 -33 c-3 -5 -12 -10 -18 -10
-7 0 -6 4 3 10 19 12 23 12 15 0z"/>
<path d="M9010 5190 c0 -5 9 -10 20 -10 14 0 18 -5 14 -17 -4 -13 -3 -14 3 -5
5 7 17 10 26 6 10 -3 17 -1 17 5 0 6 -4 12 -10 12 -5 1 -14 2 -19 3 -5 0 -13
4 -17 9 -11 10 -34 9 -34 -3z"/>
<path d="M8845 5172 c-65 -5 -59 -17 7 -14 42 3 58 1 54 -7 -4 -7 1 -11 13
-11 12 0 21 -4 21 -9 0 -5 10 -11 23 -14 19 -5 18 -3 -8 18 -23 19 -26 25 -12
25 9 0 17 4 17 8 0 8 -43 10 -115 4z"/>
<path d="M8975 5160 c-3 -5 3 -10 15 -10 12 0 18 5 15 10 -3 6 -10 10 -15 10
-5 0 -12 -4 -15 -10z"/>
<path d="M9069 5141 c9 -6 10 -10 2 -14 -8 -4 -8 -5 1 -3 20 4 21 26 1 26 -14
0 -15 -2 -4 -9z"/>
<path d="M9111 5145 c-1 -6 9 -21 22 -35 23 -25 32 -74 12 -67 -5 2 -9 11 -9
20 1 9 -3 14 -8 11 -10 -7 -28 13 -28 31 0 6 4 3 10 -5 5 -8 12 -11 16 -7 12
12 -11 28 -29 21 -21 -8 -21 -18 -2 -34 8 -7 15 -20 15 -29 0 -9 -10 -1 -25
20 -26 40 -51 54 -61 37 -4 -6 -3 -8 3 -5 6 4 17 -1 24 -10 12 -15 12 -16 -5
-10 -16 7 -17 5 -5 -9 9 -11 15 -12 17 -5 5 14 32 -5 32 -21 0 -6 -7 -5 -15 2
-10 9 -15 9 -15 1 0 -6 5 -11 11 -11 5 0 7 -6 3 -12 -5 -9 -3 -9 9 1 14 11 18
11 24 -5 6 -17 8 -16 14 6 l7 25 7 -22 c13 -41 32 -22 26 25 -1 6 3 12 9 12 5
0 0 15 -12 34 -13 19 -26 32 -29 30 -4 -2 -10 2 -12 8 -3 7 -6 8 -6 3z"/>
<path d="M8850 5127 c-14 -8 -32 -11 -40 -9 -12 4 -13 2 -2 -9 9 -10 15 -10
24 -1 7 7 20 12 29 12 10 0 21 5 24 10 8 14 -5 12 -35 -3z"/>
<path d="M8840 5097 c-42 -19 -90 -87 -90 -127 0 -6 57 -10 161 -10 l162 0 -6
36 c-7 40 -37 78 -79 100 -32 17 -113 17 -148 1z"/>
<path d="M8715 5060 c3 -5 13 -10 21 -10 8 0 12 -5 9 -10 -4 -6 -11 -7 -17 -4
-6 4 -6 -1 1 -14 8 -15 8 -22 -2 -25 -7 -3 -4 -6 7 -6 13 -1 16 4 12 15 -4 9
-1 22 4 30 9 9 6 15 -9 23 -25 14 -34 14 -26 1z"/>
<path d="M9183 5022 c-8 -5 -9 -13 -3 -22 11 -17 23 -8 18 14 -2 9 -8 12 -15
8z"/>
<path d="M8660 5005 c0 -8 5 -15 10 -15 6 0 10 7 10 15 0 8 -4 15 -10 15 -5 0
-10 -7 -10 -15z"/>
<path d="M9087 4992 c1 -8 3 -18 3 -23 0 -5 4 -9 10 -9 5 0 6 7 3 17 -4 11 -3
14 5 9 7 -4 12 -2 12 4 0 7 -6 10 -14 7 -8 -3 -17 -3 -19 1 -2 4 -2 1 0 -6z"/>
<path d="M8623 4965 c-3 -9 -3 -18 -1 -21 3 -3 8 4 11 16 6 23 -1 27 -10 5z"/>
<path d="M8710 4972 c0 -5 7 -9 15 -9 8 0 15 4 15 9 0 4 -7 8 -15 8 -8 0 -15
-4 -15 -8z"/>
<path d="M9140 4970 c0 -5 14 -10 30 -10 26 0 30 -4 31 -27 2 -26 2 -26 6 -4
3 13 1 27 -4 31 -14 13 -63 21 -63 10z"/>
<path d="M8780 4940 c-8 -5 -25 -10 -37 -10 -13 0 -23 -4 -23 -8 0 -4 19 -8
43 -7 29 0 41 4 39 13 -2 10 30 12 144 11 80 0 148 2 151 5 11 10 -301 6 -317
-4z"/>
<path d="M9130 4930 c0 -5 10 -10 23 -10 18 0 19 2 7 10 -19 13 -30 13 -30 0z"/>
<path d="M8843 4923 c9 -2 23 -2 30 0 6 3 -1 5 -18 5 -16 0 -22 -2 -12 -5z"/>
<path d="M8970 4921 l75 -5 -110 -7 c-109 -6 -109 -6 28 -4 168 3 203 20 44
21 -93 0 -100 0 -37 -5z"/>
<path d="M8660 4910 c0 -5 4 -10 9 -10 6 0 13 5 16 10 3 6 -1 10 -9 10 -9 0
-16 -4 -16 -10z"/>
<path d="M8728 4893 c6 -2 18 -2 25 0 6 3 1 5 -13 5 -14 0 -19 -2 -12 -5z"/>
<path d="M8790 4891 c0 -5 -8 -12 -17 -14 -14 -4 -12 -5 5 -6 13 -1 22 5 22
14 0 8 -2 15 -5 15 -3 0 -5 -4 -5 -9z"/>
<path d="M9050 4890 c0 -6 11 -8 28 -4 39 10 40 14 4 14 -18 0 -32 -5 -32 -10z"/>
<path d="M8880 4879 c0 -11 45 -10 115 1 46 7 44 7 -32 8 -46 0 -83 -4 -83 -9z"/>
<path d="M8650 4870 c0 -5 9 -10 21 -10 11 0 17 5 14 10 -3 6 -13 10 -21 10
-8 0 -14 -4 -14 -10z"/>
<path d="M8611 4854 c0 -11 3 -14 6 -6 3 7 2 16 -1 19 -3 4 -6 -2 -5 -13z"/>
<path d="M8720 4829 c7 -11 14 -33 16 -47 8 -41 17 -42 10 -1 -7 47 -16 69
-27 69 -6 0 -5 -9 1 -21z"/>
<path d="M8625 4775 c4 -11 10 -28 12 -37 3 -10 9 -18 14 -18 15 0 10 21 -13
48 -15 20 -19 22 -13 7z"/>
<path d="M8710 4768 c0 -7 5 -20 10 -28 8 -12 10 -11 10 7 0 12 -4 25 -10 28
-5 3 -10 0 -10 -7z"/>
<path d="M9072 4715 c-31 -24 -38 -34 -27 -39 8 -3 15 -1 15 4 0 6 5 10 10 10
6 0 10 -9 10 -20 0 -11 4 -20 10 -20 5 0 7 6 4 13 -9 24 18 37 41 21 17 -13
18 -17 6 -37 -9 -14 -2 -11 20 11 33 32 34 33 14 47 -11 8 -24 18 -30 23 -25
20 -34 19 -73 -13z m88 -25 c0 -13 1 -13 10 0 5 8 10 10 10 4 0 -23 -15 -23
-47 2 -25 19 -33 22 -33 10 0 -9 -4 -16 -10 -16 -16 0 -12 22 7 35 14 10 21
10 40 -4 12 -9 23 -23 23 -31z"/>
<path d="M9110 4726 c0 -2 8 -10 18 -17 15 -13 16 -12 3 4 -13 16 -21 21 -21
13z"/>
<path d="M8685 4711 c-3 -6 -1 -11 4 -11 6 0 11 -5 11 -11 0 -5 -4 -8 -9 -5
-5 4 -7 -3 -4 -14 3 -11 9 -17 14 -14 5 3 9 1 9 -5 0 -13 54 -51 81 -56 12 -3
38 -10 57 -16 44 -15 176 -7 198 12 9 8 19 13 21 12 10 -8 23 -1 17 9 -5 8 -2
9 12 4 10 -4 15 -4 11 0 -4 4 3 19 15 32 13 14 18 22 11 19 -6 -4 -13 -4 -16
0 -2 5 -2 3 -1 -4 4 -16 -22 -36 -36 -28 -6 4 -9 1 -8 -6 2 -6 -3 -14 -11 -17
-9 -3 -11 0 -6 9 5 8 4 11 -1 6 -5 -5 -9 -14 -9 -20 0 -5 -6 -12 -14 -15 -9
-3 -11 0 -6 8 6 10 -1 12 -31 7 -27 -4 -34 -3 -24 3 9 6 10 10 3 10 -6 0 -15
-5 -18 -10 -4 -6 -11 -7 -17 -4 -7 4 -8 2 -4 -5 4 -6 12 -9 17 -6 5 4 9 1 9
-4 0 -6 -21 -11 -50 -11 -27 0 -50 5 -50 10 0 6 -15 10 -32 11 -29 0 -30 2
-13 10 19 9 18 9 -2 5 -13 -2 -23 0 -23 5 0 5 11 9 24 9 13 0 29 7 36 15 19
23 31 18 20 -10 -9 -24 -8 -25 18 -19 35 9 41 14 14 14 -29 0 -28 20 1 21 15
0 9 4 -18 13 -22 7 -49 17 -60 23 -18 10 -21 8 -22 -8 -1 -10 3 -19 8 -19 6 0
7 5 4 10 -8 12 5 13 24 1 19 -12 3 -34 -20 -28 -10 3 -21 1 -24 -3 -10 -15
-66 -8 -75 10 -5 10 -7 20 -4 23 3 3 -1 15 -9 27 -9 13 -17 17 -22 11z m105
-107 c0 -2 -9 0 -20 6 -11 6 -20 13 -20 16 0 2 9 0 20 -6 11 -6 20 -13 20 -16z
m215 -14 c-3 -5 -14 -10 -23 -9 -14 0 -13 2 3 9 27 11 27 11 20 0z"/>
<path d="M8983 4670 c-30 -12 -29 -15 8 -16 17 -1 34 -6 38 -12 4 -6 11 -5 20
5 11 12 11 14 0 12 -8 -1 -23 -1 -34 0 -17 1 -18 3 -5 11 19 12 3 12 -27 0z"/>
<path d="M8998 4623 c7 -3 16 -2 19 1 4 3 -2 6 -13 5 -11 0 -14 -3 -6 -6z"/>
<path d="M4239 4131 c-23 -24 -29 -38 -29 -75 0 -65 33 -101 91 -100 58 2 89
37 89 100 0 57 -40 104 -90 104 -22 0 -41 -9 -61 -29z"/>
<path d="M5735 4100 c-10 -30 -20 -61 -23 -67 -3 -9 8 -13 37 -13 48 0 49 7
22 85 l-18 50 -18 -55z"/>
<path d="M6050 4109 l0 -49 38 0 c52 0 80 29 64 65 -6 14 -15 25 -19 26 -5 0
-25 2 -45 4 l-38 3 0 -49z"/>
<path d="M7888 4058 l-3 -98 43 0 c60 0 92 33 92 93 0 60 -23 88 -83 97 l-46
7 -3 -99z"/>
<path d="M8483 4150 c-25 -10 -53 -58 -53 -90 0 -42 30 -89 64 -100 88 -29
156 63 111 150 -24 47 -69 61 -122 40z"/>
</g>
</svg>
